<?xml version="1.0" encoding="UTF-8" standalone="no"?>
<!-- Created with Inkscape (http://www.inkscape.org/) -->

<svg
   width="300"
   height="300"
   viewBox="0 0 79.374998 79.375002"
   version="1.1"
   id="svg5"
   inkscape:version="1.1.1 (3bf5ae0d25, 2021-09-20)"
   sodipodi:docname="conquest-icon.svg"
   xmlns:inkscape="http://www.inkscape.org/namespaces/inkscape"
   xmlns:sodipodi="http://sodipodi.sourceforge.net/DTD/sodipodi-0.dtd"
   xmlns="http://www.w3.org/2000/svg"
   xmlns:svg="http://www.w3.org/2000/svg">
  <sodipodi:namedview
     id="namedview7"
     pagecolor="#ffffff"
     bordercolor="#666666"
     borderopacity="1.0"
     inkscape:pageshadow="2"
     inkscape:pageopacity="0.0"
     inkscape:pagecheckerboard="0"
     inkscape:document-units="mm"
     showgrid="false"
     units="px"
     inkscape:zoom="0.81386721"
     inkscape:cx="-751.96542"
     inkscape:cy="232.83897"
     inkscape:window-width="3440"
     inkscape:window-height="1361"
     inkscape:window-x="-9"
     inkscape:window-y="-9"
     inkscape:window-maximized="1"
     inkscape:current-layer="layer1" />
  <defs
     id="defs2" />
  <g
     inkscape:label="Layer 1"
     inkscape:groupmode="layer"
     id="layer1">
    <g
       aria-label="Conquest"
       id="text2168"
       style="font-size:14.8616px;line-height:1.25;font-family:'Cooper Black';-inkscape-font-specification:'Cooper Black, ';fill:#414e96;stroke-width:0.0500227">
      <path
         d="m 9.8409406,38.419641 q 1.0594694,0 2.0463724,0.464425 0.464425,0.217699 0.645841,0.217699 0.13062,0 0.420885,-0.06531 0.09434,-0.02177 0.210443,-0.02177 0.377345,0 0.660354,0.348319 0.696638,0.84177 0.696638,2.089912 0,0.878054 -0.602301,1.284426 -0.326549,0.217699 -0.732921,0.217699 -0.370089,0 -0.602301,-0.159646 -0.232213,-0.159646 -0.449912,-0.566018 -0.312036,-0.573275 -0.507965,-0.82 -0.195929,-0.253983 -0.478938,-0.457169 -0.703894,-0.493451 -1.4730982,-0.493451 -0.7474339,0 -1.190089,0.544248 -0.4353984,0.536991 -0.4353984,1.444071 0,1.248142 0.6313277,2.285842 0.8562836,1.386018 2.4527449,1.386018 0.587787,0 1.161062,-0.195929 0.580531,-0.195929 0.899824,-0.507965 0.275752,-0.261239 0.449911,-0.261239 0.253983,0 0.435399,0.239469 0.181416,0.232213 0.181416,0.566018 0,0.420885 -0.253983,0.943364 -0.253982,0.522478 -0.609558,0.82 -0.152389,0.123363 -0.631327,0.217699 -0.275753,0.0508 -0.732921,0.268496 -1.073983,0.515221 -2.2350453,0.515221 -1.2118589,0 -2.4164613,-0.544248 -1.4005316,-0.631327 -2.2132754,-1.937523 -0.7982304,-1.269912 -0.7982304,-2.65593 0,-1.610974 1.0014164,-2.93894 0.8707968,-1.153806 2.2713285,-1.763363 1.0667261,-0.464425 2.1987621,-0.464425 z"
         id="path67342" />
      <path
         d="m 19.485016,41.29327 q 1.327965,0 2.329381,0.689381 0.718408,0.493452 1.153806,1.284426 0.449912,0.827257 0.449912,1.72708 0,1.574691 -1.444071,2.6777 -1.378762,1.052213 -3.156639,1.052213 -1.734337,0 -2.80832,-0.986903 -1.044956,-0.957876 -1.044956,-2.496284 0,-1.712567 1.277168,-2.801063 1.335222,-1.14655 3.243719,-1.14655 z m -0.580531,1.676284 q -0.319293,0 -0.515222,0.239469 -0.188673,0.232213 -0.188673,0.624072 0,0.435398 0.159647,1.190089 0.166902,0.747434 0.391858,1.327965 0.224956,0.595044 0.732921,0.595044 0.645841,0 0.645841,-0.82 0,-0.609558 -0.166903,-1.386018 -0.159646,-0.776461 -0.391859,-1.262656 -0.239469,-0.493451 -0.66761,-0.507965 z"
         id="path67344" />
      <path
         d="m 32.742899,43.978227 0.101593,2.554338 q 0.01451,0.290265 0.08708,0.428142 0.07982,0.137876 0.449912,0.529734 0.10885,0.116107 0.10885,0.326549 0,0.478939 -0.573275,0.667611 -0.573275,0.188673 -2.046373,0.188673 -1.001416,0 -1.415045,-0.17416 -0.428141,-0.181416 -0.428141,-0.587787 0,-0.145133 0.04354,-0.210443 0.04354,-0.07257 0.290266,-0.341062 0.290266,-0.304779 0.290266,-2.031859 0,-1.001417 -0.232213,-1.480355 -0.188672,-0.384602 -0.696637,-0.384602 -0.486195,0 -0.667611,0.312035 -0.181416,0.312036 -0.181416,1.132036 v 1.436815 q 0,0.428142 0.0508,0.587788 0.05805,0.159646 0.362832,0.616815 0.07982,0.130619 0.07982,0.297522 0,0.428142 -0.595044,0.631328 -0.595045,0.203185 -1.8577,0.203185 -2.017346,0 -2.017346,-0.834513 0,-0.17416 0.05805,-0.261239 0.06531,-0.09434 0.297522,-0.261239 0.188673,-0.137876 0.239469,-0.312036 0.0508,-0.181416 0.09434,-0.878053 0.0508,-0.827257 0.0508,-1.734337 0,-0.500709 -0.07982,-0.653098 -0.07257,-0.159646 -0.435398,-0.384602 -0.312036,-0.195929 -0.312036,-0.478938 0,-0.290266 0.253982,-0.471682 0.253983,-0.188673 1.044957,-0.471682 0.696637,-0.246725 1.342478,-0.413628 0.645841,-0.17416 0.88531,-0.17416 0.2177,0 0.362832,0.159647 0.15239,0.159646 0.15239,0.377345 0,0.02177 -0.0073,0.181416 -0.0073,0.05805 -0.0073,0.101593 0,0.348319 0.290265,0.348319 0.17416,0 0.370089,-0.275753 0.624071,-0.899823 1.81416,-0.899823 0.914337,0 1.567434,0.478938 0.457169,0.341062 0.638585,0.805487 0.181416,0.457169 0.224956,1.349735 z"
         id="path67346" />
      <path
         d="m 38.127325,41.300527 q 0.478938,0 0.769204,0.04354 0.297522,0.04354 1.153805,0.246726 0.232213,0.0508 0.449912,0.0508 0.261239,0 0.769204,-0.181416 0.442655,-0.159646 0.725664,-0.159646 0.638585,0 0.638585,0.515221 0,0.268496 -0.0508,0.645841 -0.09434,0.674868 -0.166903,2.089913 -0.07257,1.415045 -0.07257,2.576107 0,1.436815 0.07982,2.03186 0.04354,0.268495 0.101593,0.377345 0.06531,0.10885 0.290266,0.275752 0.304778,0.232213 0.304778,0.573275 0,0.92885 -1.915753,0.92885 -1.451328,0 -2.416461,-0.406372 -0.333805,-0.137876 -0.544248,-0.370089 -0.203186,-0.232212 -0.203186,-0.471681 0,-0.210443 0.09434,-0.312036 0.101593,-0.101593 0.478939,-0.283009 0.428141,-0.210442 0.428141,-0.856283 0,-0.370089 -0.195929,-0.370089 -0.101593,0 -0.595044,0.246726 -0.471682,0.232212 -1.175576,0.232212 -1.422302,0 -2.278585,-1.023186 -0.914337,-1.103009 -0.914337,-2.735754 0,-1.66177 1.175576,-2.663187 1.168319,-0.994159 3.069559,-1.001416 z m 0.217699,1.589204 q -0.312036,0 -0.580531,0.341062 -0.348319,0.449912 -0.348319,1.371505 0,1.117523 0.384602,1.763364 0.312035,0.529735 0.740177,0.529735 0.362832,0 0.493452,-0.362832 0.130619,-0.355576 0.130619,-1.429558 0,-0.99416 -0.07257,-1.407789 -0.07257,-0.420885 -0.268496,-0.609557 -0.210442,-0.188673 -0.478938,-0.19593 z"
         id="path67348" />
      <path
         d="m 47.401314,41.714156 v 3.933099 q 0,1.262655 0.834513,1.262655 0.210443,0 0.413629,-0.116106 0.203186,-0.123363 0.283009,-0.297522 0.159646,-0.348319 0.159646,-1.552921 0,-1.190089 -0.07982,-1.625488 -0.02903,-0.181416 -0.101593,-0.261239 -0.07257,-0.08708 -0.275752,-0.195929 -0.413629,-0.217699 -0.413629,-0.551505 0,-0.449912 0.711151,-0.624071 1.349735,-0.333806 2.663187,-0.333806 0.732921,0 0.732921,0.776461 0,0.07982 -0.0073,0.326549 -0.01451,0.348319 -0.02177,0.849027 v 3.200178 q 0,0.246726 0.420885,0.449912 0.355576,0.174159 0.355576,0.507965 0,0.653098 -1.545665,1.008673 -0.90708,0.210442 -1.756107,0.210442 -0.348318,0 -0.478938,-0.07982 -0.123363,-0.07982 -0.145133,-0.312035 -0.03628,-0.449912 -0.275752,-0.449912 -0.08708,0 -0.159646,0.04354 -0.07257,0.03628 -0.442655,0.290266 -0.732921,0.500708 -1.574691,0.500708 -1.393275,0 -1.96655,-0.805487 -0.486195,-0.674868 -0.486195,-2.271329 0,-0.595044 0.0073,-1.015929 0,-0.246726 0,-0.333806 0,-0.624071 -0.116106,-0.914337 -0.10885,-0.297522 -0.406372,-0.464425 -0.283009,-0.145132 -0.362832,-0.232212 -0.07257,-0.08708 -0.07257,-0.239469 0,-0.551505 0.834514,-0.732921 1.422301,-0.312036 2.844603,-0.312036 0.428142,0 0.428142,0.362833 z"
         id="path67350" />
      <path
         d="m 60.202027,45.277166 h -3.410621 q -0.224956,0 -0.224956,0.195929 0,0.471682 0.507965,0.892567 0.515221,0.413629 1.103009,0.413629 0.348319,0 0.769204,-0.13062 0.428142,-0.137876 0.703894,-0.333805 0.246726,-0.17416 0.391859,-0.17416 0.188672,0 0.370088,0.232213 0.181416,0.232212 0.181416,0.478938 0,0.522478 -0.653097,1.008673 -1.153806,0.86354 -2.663187,0.86354 -1.523895,0 -2.554338,-0.88531 -0.500708,-0.435398 -0.827257,-1.052213 -0.428142,-0.82 -0.428142,-1.72708 0,-1.219116 0.740178,-2.191506 0.638584,-0.84177 1.625487,-1.255398 0.740177,-0.312036 1.603718,-0.312036 1.378761,0 2.343895,0.783717 0.486194,0.391859 0.783717,0.92885 0.341062,0.609558 0.341062,1.190089 0,0.471682 -0.195929,0.776461 -0.19593,0.297522 -0.507965,0.297522 z m -3.221949,-1.356992 h 0.732921 q 0.464425,0 0.464425,-0.428142 0,-0.391858 -0.224956,-0.638584 -0.224956,-0.246726 -0.587788,-0.246726 -0.406372,0 -0.638584,0.319292 -0.217699,0.297523 -0.217699,0.602302 0,0.217699 0.101593,0.304779 0.108849,0.08708 0.370088,0.08708 z"
         id="path67352" />
      <path
         d="m 64.280258,41.300527 q 0.362832,0 1.182832,0.159646 0.166903,0.02903 0.275752,0.02903 0.123363,0 0.478939,-0.13062 0.166902,-0.06531 0.283009,-0.06531 0.333805,0 0.674867,0.428142 0.275753,0.341062 0.449912,0.747434 0.174159,0.406372 0.174159,0.703894 0,0.290266 -0.203186,0.486195 -0.203186,0.188673 -0.507964,0.188673 -0.253983,0 -0.457169,-0.123363 Q 66.43548,43.600885 65.992825,43.18 65.5284,42.730088 65.223621,42.730088 q -0.203186,0 -0.355575,0.15239 -0.145133,0.145132 -0.145133,0.348318 0,0.355576 0.682124,0.667611 1.226372,0.551505 1.87947,1.204603 0.551505,0.551504 0.551505,1.349735 0,1.008673 -0.885311,1.68354 -0.761947,0.587788 -1.864956,0.587788 -0.283009,0 -1.030443,-0.09434 -0.703894,-0.07982 -0.790974,-0.07982 -0.09434,0 -0.217699,0.02177 -0.210443,0.02903 -0.304779,0.02903 -0.341062,0 -0.536992,-0.174159 -0.297522,-0.268496 -0.551504,-0.84177 -0.253983,-0.580532 -0.253983,-0.99416 0,-0.667611 0.522478,-0.667611 0.203186,0 0.370089,0.137876 0.17416,0.13062 0.718408,0.711151 0.297522,0.319292 0.493451,0.442655 0.195929,0.116106 0.420885,0.116106 0.239469,0 0.384602,-0.123363 0.145133,-0.130619 0.145133,-0.341062 0,-0.326548 -0.558761,-0.595044 -1.168319,-0.573275 -1.690798,-1.182833 -0.515221,-0.609557 -0.515221,-1.407788 0,-0.86354 0.529735,-1.487611 0.75469,-0.892567 2.060886,-0.892567 z"
         id="path67354" />
      <path
         d="m 72.814061,43.201767 v 2.452744 q 0,0.435399 0.210442,0.711151 0.217699,0.275752 0.551505,0.275752 0.283009,0 0.747434,-0.261239 0.108849,-0.06531 0.217699,-0.06531 0.174159,0 0.319292,0.210442 0.145133,0.210443 0.145133,0.457169 0,0.449911 -0.493451,0.86354 -1.030443,0.878053 -2.496285,0.878053 -1.161062,0 -1.864956,-0.653097 -0.703895,-0.660355 -0.703895,-1.734337 v -3.352568 q 0,-0.166903 -0.04354,-0.203186 -0.03628,-0.04354 -0.203186,-0.04354 H 68.45282 q -0.210443,0 -0.268496,-0.06531 -0.05805,-0.07257 -0.05805,-0.326549 V 42.02619 q 0.0073,-0.217699 0.166903,-0.319292 l 3.323541,-2.089913 q 0.123363,-0.06531 0.304779,-0.06531 h 0.587788 q 0.181416,0 0.239469,0.08708 0.06531,0.07982 0.06531,0.326549 v 0.979647 q 0,0.217699 0.06531,0.283009 0.07257,0.06531 0.297523,0.06531 h 1.342478 q 0.268496,0 0.348319,0.101593 0.07982,0.09434 0.07982,0.413629 v 0.428142 q 0,0.348318 -0.101593,0.486195 -0.101593,0.130619 -0.370089,0.130619 H 73.16238 q -0.203186,0 -0.275752,0.07257 -0.07257,0.07257 -0.07257,0.275753 z"
         id="path67356" />
    </g>
    <g
       aria-label="Taxis"
       id="text12664"
       style="font-size:15.159px;line-height:1.25;font-family:'Cooper Black';-inkscape-font-specification:'Cooper Black, Normal';fill:#414e96;stroke-width:0.0533985">
      <path
         d="m 22.306393,53.98035 h 3.900788 q 0.629159,-0.0222 1.14729,-0.170243 0.222056,-0.05922 0.392299,-0.05922 0.599552,0 1.162095,0.888225 0.569944,0.888225 0.569944,1.828263 0,0.643963 -0.392299,0.940038 -0.296075,0.222056 -0.71058,0.222056 -0.3923,0 -0.680973,-0.214654 -0.288673,-0.222056 -0.569944,-0.725384 -0.244262,-0.458916 -0.384897,-0.599552 -0.140636,-0.140635 -0.340487,-0.140635 -0.273869,0 -0.392299,0.229458 -0.11843,0.229458 -0.11843,0.754991 v 4.145049 q 0,0.636561 0.133234,0.925235 0.133234,0.288673 0.503327,0.444112 0.399701,0.170243 0.540337,0.325682 0.148038,0.148038 0.148038,0.414505 0,0.532935 -0.725384,0.792001 -0.717982,0.259065 -2.21316,0.259065 -1.835665,0 -2.72389,-0.303476 -0.747589,-0.251664 -0.747589,-0.814207 0,-0.303476 0.266467,-0.473719 0.06662,-0.03701 0.525533,-0.177645 0.281271,-0.08142 0.384898,-0.310879 0.111028,-0.229458 0.177645,-0.880823 0.05921,-0.577346 0.111028,-1.865272 0.05181,-1.295328 0.05181,-2.242768 0,-0.666169 -0.103626,-0.94744 -0.103627,-0.281271 -0.340487,-0.281271 -0.288673,0 -0.562542,0.414505 -0.495925,0.754991 -0.814206,0.999253 -0.377496,0.288673 -0.732786,0.288673 -0.399701,0 -0.658766,-0.296075 -0.259066,-0.303477 -0.259066,-0.769795 0,-0.458916 0.207253,-1.006655 0.207252,-0.55514 0.55514,-1.021458 0.562543,-0.754992 1.110281,-0.754992 0.148038,0 0.340486,0.04441 0.399702,0.08142 0.651365,0.111028 0.259066,0.02961 0.59215,0.02961 z"
         style="font-size:15.159px"
         id="path67359" />
      <path
         d="m 33.194549,56.70424 q 1.287926,0 2.183553,0.651365 0.473719,0.347888 0.658766,0.799402 0.192449,0.444113 0.192449,1.228711 l -0.0148,1.102879 q 0,1.147291 0.162842,1.487777 0.08142,0.162841 0.155439,0.207253 0.07402,0.04441 0.310879,0.08142 0.23686,0.03701 0.23686,0.310879 0,0.35529 -0.288674,0.740187 -0.281271,0.384898 -0.732785,0.643963 -0.555141,0.325683 -1.162094,0.325683 -0.777197,0 -1.228711,-0.532935 -0.15544,-0.192449 -0.288673,-0.192449 -0.148038,0 -0.3923,0.185047 -0.740187,0.540337 -1.680225,0.540337 -0.969646,0 -1.569197,-0.414505 -0.3923,-0.27387 -0.621758,-0.71058 -0.229458,-0.444113 -0.229458,-0.925234 0,-0.769795 0.621758,-1.361945 0.969645,-0.932636 2.901534,-0.940038 0.429309,0 0.540337,-0.08142 0.111028,-0.08882 0.111028,-0.399701 0,-0.784599 -0.162841,-1.132487 -0.162841,-0.35529 -0.532935,-0.35529 -0.222056,0 -0.399701,0.133234 -0.170243,0.133234 -0.429309,0.488524 -0.658767,0.940038 -1.376748,0.940038 -0.362692,0 -0.59215,-0.214655 -0.229458,-0.214654 -0.229458,-0.562542 0,-0.35529 0.281271,-0.71058 0.288673,-0.35529 0.777196,-0.621757 1.33974,-0.71058 2.797909,-0.71058 z m -0.495926,4.285685 q -0.325682,0 -0.569944,0.266467 -0.23686,0.266468 -0.23686,0.636561 0,0.35529 0.170243,0.577347 0.170243,0.214654 0.451514,0.214654 0.59215,0 0.59215,-0.999253 0,-0.407103 -0.08882,-0.547739 -0.08142,-0.140635 -0.318281,-0.148037 z"
         style="font-size:15.159px"
         id="path67361" />
      <path
         d="M 39.87844,59.938859 39.249281,59.15426 q -0.407103,-0.510729 -0.636562,-0.688374 -0.229458,-0.177645 -0.577346,-0.251664 -0.584748,-0.125832 -0.584748,-0.562542 0,-0.451515 0.74759,-0.666169 0.754991,-0.222056 2.324188,-0.222056 1.139888,0 1.695029,0.125832 0.614356,0.148037 0.614356,0.59215 0,0.170243 -0.244262,0.55514 -0.04441,0.07402 -0.04441,0.15544 0,0.155439 0.229459,0.451514 0.236859,0.296075 0.355289,0.296075 0.133234,0 0.3923,-0.325683 0.259065,-0.333084 0.259065,-0.495925 0,-0.11843 -0.162841,-0.35529 -0.140635,-0.207253 -0.140635,-0.325683 0,-0.162841 0.11843,-0.31828 0.125831,-0.15544 0.310878,-0.229458 0.333085,-0.133234 1.125085,-0.133234 0.688374,0 0.954842,0.133234 0.370093,0.192448 0.370093,0.547738 0,0.192449 -0.103626,0.288673 -0.103626,0.09622 -0.525533,0.296075 -0.229458,0.111029 -0.347888,0.251664 -0.11843,0.133234 -0.821608,1.080674 l -0.510729,0.769795 q -0.08882,0.125831 -0.08882,0.170243 0,0.02961 0.08142,0.162841 l 0.444112,0.67357 q 0.71058,1.073272 1.051066,1.398955 0.162842,0.155439 0.525534,0.31828 0.340486,0.148038 0.340486,0.503328 0,0.503327 -0.621758,0.695776 -0.621757,0.185047 -2.272375,0.185047 -1.26572,0 -1.769048,-0.11843 -0.666168,-0.162842 -0.666168,-0.688375 0,-0.310878 0.384897,-0.488523 0.214654,-0.09623 0.214654,-0.325683 0,-0.244262 -0.303476,-0.666168 -0.303477,-0.429309 -0.47372,-0.421907 -0.177645,0.0074 -0.525533,0.532935 -0.347889,0.525533 -0.347889,0.792 0,0.125832 0.177645,0.340486 0.15544,0.177645 0.15544,0.399702 0,0.643963 -1.517384,0.643963 -0.82901,0 -1.191702,-0.162842 -0.362692,-0.162841 -0.362692,-0.532935 0,-0.23686 0.111028,-0.340486 0.11843,-0.111028 0.429309,-0.170243 0.325682,-0.05922 0.495925,-0.266467 0.170244,-0.207253 1.051067,-1.598805 l 0.532934,-0.880823 q 0.07402,-0.11843 0.07402,-0.170243 0,-0.04441 -0.09622,-0.170243 z"
         style="font-size:15.159px"
         id="path67363" />
      <path
         d="m 50.796205,57.222371 v 4.300489 q 0,0.510729 0.08882,0.747589 0.09622,0.23686 0.377495,0.436711 0.229458,0.162841 0.303477,0.281271 0.08142,0.111028 0.08142,0.288673 0,0.954842 -2.420413,0.954842 -1.30273,0 -2.065123,-0.207253 -0.259065,-0.07402 -0.421907,-0.259065 -0.155439,-0.185047 -0.155439,-0.421907 0,-0.199851 0.08142,-0.310879 0.08142,-0.111028 0.414505,-0.35529 0.229458,-0.170243 0.325682,-0.55514 0.09622,-0.384898 0.09622,-1.147291 0,-0.244262 -0.03701,-0.91043 -0.02961,-0.673571 -0.04441,-0.784599 -0.04441,-0.303477 -0.414505,-0.466318 -0.458916,-0.199851 -0.458916,-0.59215 0,-0.466318 0.599552,-0.695776 0.829009,-0.318281 1.776449,-0.540337 0.94744,-0.222056 1.465571,-0.222056 0.407103,0 0.407103,0.458916 z M 49.330634,53.98035 q 0.643963,0 1.021459,0.244262 0.377495,0.23686 0.377495,0.643963 0,0.569944 -0.569944,0.903029 -0.903028,0.525533 -2.183553,0.525533 -0.540336,0 -0.858617,-0.207253 -0.429309,-0.266467 -0.429309,-0.740187 0,-0.636561 0.910431,-0.999253 0.925234,-0.370094 1.732038,-0.370094 z"
         style="font-size:15.159px"
         id="path67365" />
      <path
         d="m 55.044879,56.711642 q 0.370094,0 1.206506,0.162841 0.170243,0.02961 0.281271,0.02961 0.125832,0 0.488523,-0.133233 0.170243,-0.06662 0.288673,-0.06662 0.340487,0 0.688375,0.43671 0.281271,0.347889 0.458916,0.762393 0.177645,0.414505 0.177645,0.717982 0,0.296075 -0.207253,0.495926 -0.207252,0.192448 -0.518131,0.192448 -0.259065,0 -0.466318,-0.125831 -0.19985,-0.125832 -0.651365,-0.555141 -0.47372,-0.458916 -0.784598,-0.458916 -0.207253,0 -0.362692,0.155439 -0.148038,0.148038 -0.148038,0.35529 0,0.362692 0.695777,0.680973 1.250916,0.562542 1.917085,1.228711 0.562542,0.562542 0.562542,1.376748 0,1.028861 -0.903028,1.717235 -0.777197,0.599552 -1.902282,0.599552 -0.288673,0 -1.051066,-0.09623 -0.717982,-0.08142 -0.806804,-0.08142 -0.09623,0 -0.222056,0.0222 -0.214655,0.02961 -0.310879,0.02961 -0.347888,0 -0.547739,-0.177645 -0.303477,-0.273869 -0.562542,-0.858618 -0.259066,-0.592149 -0.259066,-1.014056 0,-0.680973 0.532935,-0.680973 0.207253,0 0.377496,0.140636 0.177645,0.133234 0.732785,0.725384 0.303477,0.325682 0.503328,0.451514 0.19985,0.11843 0.429308,0.11843 0.244262,0 0.3923,-0.125832 0.148037,-0.133234 0.148037,-0.347888 0,-0.333084 -0.569944,-0.606954 -1.191702,-0.584748 -1.724637,-1.206505 -0.525533,-0.621758 -0.525533,-1.435964 0,-0.880823 0.540337,-1.517384 0.769795,-0.91043 2.102132,-0.91043 z"
         style="font-size:15.159px"
         id="path67367" />
    </g>
    <g
       id="g67242"
       transform="matrix(0.18456911,0,0,0.18456911,26.143444,14.407828)">
      <path
         id="path47554-9"
         style="fill:#fcb900;stroke-width:3"
         inkscape:transform-center-x="-15.089129"
         inkscape:transform-center-y="-0.027427536"
         transform="matrix(0.10896244,-0.13839835,0.11039185,0.13675512,92.396208,65.032974)"
         d="M 357.55218,175.70433 -292.47858,-3.1446784 187.42458,-476.66332 Z" />
      <path
         id="path47554"
         style="fill:#414e96;stroke-width:3"
         inkscape:transform-center-x="-15.093495"
         inkscape:transform-center-y="-0.022783216"
         transform="matrix(0.10894114,-0.13841511,0.11041289,0.13673813,59.488291,65.028018)"
         d="M 357.55218,175.70433 -292.47858,-3.1446784 187.42458,-476.66332 Z" />
    </g>
  </g>
</svg>
