<?xml version="1.0" encoding="UTF-8" standalone="no"?>
<!-- Created with Inkscape (http://www.inkscape.org/) -->

<svg
   width="238.94409mm"
   height="118.27145mm"
   viewBox="0 0 238.94409 118.27145"
   version="1.1"
   id="svg5"
   xml:space="preserve"
   inkscape:version="1.2.1 (9c6d41e410, 2022-07-14)"
   sodipodi:docname="hbc-logo.svg"
   xmlns:inkscape="http://www.inkscape.org/namespaces/inkscape"
   xmlns:sodipodi="http://sodipodi.sourceforge.net/DTD/sodipodi-0.dtd"
   xmlns="http://www.w3.org/2000/svg"
   xmlns:svg="http://www.w3.org/2000/svg"><sodipodi:namedview
     id="namedview7"
     pagecolor="#505050"
     bordercolor="#eeeeee"
     borderopacity="1"
     inkscape:showpageshadow="0"
     inkscape:pageopacity="0"
     inkscape:pagecheckerboard="0"
     inkscape:deskcolor="#505050"
     inkscape:document-units="mm"
     showgrid="false"
     inkscape:zoom="0.69985021"
     inkscape:cx="-536.54339"
     inkscape:cy="-102.16472"
     inkscape:window-width="3440"
     inkscape:window-height="1361"
     inkscape:window-x="-9"
     inkscape:window-y="-9"
     inkscape:window-maximized="1"
     inkscape:current-layer="layer1" /><defs
     id="defs2" /><g
     inkscape:label="Layer 1"
     inkscape:groupmode="layer"
     id="layer1"
     transform="translate(-286.08973,-72.508933)"><path
       style="fill:#ffffff;fill-opacity:1;stroke-width:0.264583"
       d="m 403.32549,190.41054 c -1.95447,-0.6082 -1.86365,-0.52338 -1.54357,-1.44155 l 0.28935,-0.83001 0.69325,0.17001 c 0.3813,0.0935 1.28857,0.2352 2.01618,0.31487 1.77617,0.19448 2.67155,-0.47102 2.92717,-2.17565 0.0986,-0.65755 0.12369,-1.25113 0.0557,-1.31908 -0.0679,-0.0679 -0.58479,0.0692 -1.14854,0.30473 -1.56445,0.65367 -3.61309,0.40001 -4.65094,-0.57587 -1.13095,-1.06343 -1.54906,-2.18373 -1.54906,-4.15063 0,-2.26067 0.94902,-4.22457 2.39885,-4.96422 1.27521,-0.65056 3.33134,-0.68653 4.20644,-0.0736 0.45219,0.31673 0.66807,0.3552 0.74237,0.13229 0.0598,-0.17943 0.60624,-0.31431 1.27335,-0.31431 h 1.16858 l -0.002,5.49011 c -7.9e-4,3.01956 -0.12445,5.93289 -0.27475,6.47407 -0.41676,1.5006 -1.34626,2.41889 -2.96485,2.92911 -1.66929,0.5262 -2.03311,0.52917 -3.63809,0.0297 z m 3.1411,-6.74875 c 1.1495,-0.40072 1.35682,-0.91996 1.35682,-3.39825 v -2.13795 l -0.8599,-0.52429 c -1.20927,-0.73731 -2.21066,-0.67141 -3.08508,0.203 -1.63329,1.6333 -1.16619,5.25028 0.76998,5.96219 0.6176,0.22709 0.91562,0.20993 1.81818,-0.1047 z m -105.2305,2.91517 -2.28873,-0.94911 -0.0678,-2.22589 c -1.7184,-56.39749 -2.44968,-78.35054 -2.61909,-78.62465 -0.0819,-0.13254 -0.43361,-0.16954 -0.78153,-0.0822 -0.39308,0.0987 -0.6326,0.0433 -0.6326,-0.14626 0,-0.16776 0.82938,-2.73546 1.84306,-5.705991 1.24248,-3.64102 2.08309,-5.685514 2.57968,-6.274184 0.40515,-0.480268 1.9259,-2.290385 3.37944,-4.022481 4.47998,-5.338523 9.9447,-11.800127 11.4177,-13.500564 l 1.40338,-1.620048 9.73056,9.767304 c 5.3518,5.372018 9.72467,9.851508 9.71746,9.954423 -0.0557,0.795996 -0.47282,2.70066 -0.59142,2.70066 -0.0812,0 -0.3653,-0.19705 -0.63142,-0.43788 l -0.48385,-0.43788 10e-4,0.50402 c 7.9e-4,0.27722 0.41734,9.017001 0.92571,19.421741 0.50837,10.40474 1.34702,27.72832 1.86367,38.49687 0.51665,10.76854 1.08235,22.4816 1.2571,26.02902 0.21067,4.27645 0.22858,6.47907 0.0532,6.53659 -0.14552,0.0477 -7.22974,0.39007 -15.74271,0.76078 -8.51296,0.37071 -16.05554,0.70346 -16.76127,0.73944 -0.97347,0.0496 -1.8355,-0.16363 -3.57187,-0.88369 z m 1.69763,-4.27641 c -0.0929,-1.92815 -0.342,-8.9826 -0.55356,-15.67657 -1.10609,-34.99672 -1.99267,-61.71508 -2.13676,-64.39447 l -0.16194,-3.011151 -1.19704,2.743131 -1.19705,2.74314 0.29846,9.39614 c 0.16415,5.16787 0.71553,22.6716 1.22528,38.89717 0.50975,16.22558 0.9566,30.02204 0.993,30.6588 l 0.0662,1.15775 1.19062,0.48111 c 0.65484,0.26462 1.29212,0.48777 1.41617,0.4959 0.12405,0.008 0.14954,-1.56279 0.0567,-3.49095 z m 3.66683,-0.55768 c -0.11917,-2.1498 -0.90631,-22.86846 -0.90631,-23.8556 0,-0.21528 -0.1786,-0.39141 -0.39688,-0.39141 -0.31073,0 -0.39687,0.36138 -0.39687,1.66491 0,3.58074 0.55241,24.67887 0.65382,24.97133 0.0592,0.1706 0.34893,0.24707 0.64395,0.16992 l 0.53639,-0.14027 z m 1.77115,0.35925 c -0.0316,-1.09141 -0.22891,-6.56828 -0.43841,-12.17084 -0.2095,-5.60256 -0.38228,-10.69248 -0.38394,-11.31094 l -0.003,-1.12448 h -0.56942 -0.56941 l 0.16601,3.50573 c 0.0913,1.92815 0.29936,7.79199 0.46232,13.03074 0.16296,5.23875 0.34413,9.68262 0.4026,9.87528 0.0585,0.19266 0.30531,0.31172 0.54854,0.26458 l 0.44223,-0.0857 z m 2.08781,1.12448 c 0.005,-1.93794 -0.80746,-22.45064 -0.95412,-24.0771 l -0.1491,-1.65364 h -0.50811 -0.50811 l -0.005,1.25677 c -0.009,2.2399 0.8385,24.79432 0.94417,25.13542 0.0563,0.18191 0.34431,0.33073 0.63992,0.33073 0.44419,0 0.53795,-0.17218 0.54023,-0.99218 z m 2.03249,-1.7198 c -0.0877,-1.34606 -0.36604,-7.3116 -0.61847,-13.25675 -0.36599,-8.61961 -0.53279,-10.8377 -0.82337,-10.94921 -0.20043,-0.0769 -0.47115,-0.0331 -0.6016,0.0974 -0.13987,0.13987 -0.0254,5.28386 0.27906,12.53671 0.28395,6.76472 0.51775,12.68645 0.51957,13.15939 l 0.003,0.8599 h 0.70051 0.70051 z m 1.28869,-1.05833 c -0.087,-1.92815 -0.28404,-7.85151 -0.43783,-13.16303 -0.15379,-5.31151 -0.37946,-9.76003 -0.50148,-9.88559 -0.42619,-0.43855 -0.74594,0.10397 -0.64137,1.08824 0.058,0.54568 0.28432,5.51652 0.503,11.04632 0.48114,12.1667 0.63329,14.41979 0.97377,14.41979 0.16789,0 0.20524,-1.26041 0.10391,-3.50573 z m -8.35592,-29.50105 c -0.003,-0.83675 -0.17909,-5.86714 -0.39199,-11.17865 -0.2129,-5.31151 -0.3893,-10.52049 -0.39199,-11.57552 l -0.005,-1.91822 h -0.43914 -0.43915 l 0.17522,6.28385 c 0.0964,3.45612 0.25357,9.34971 0.34932,13.09687 l 0.1741,6.81302 h 0.4867 0.4867 l -0.005,-1.52135 z m 1.83471,0.13229 c -0.0122,-0.76398 -0.2206,-6.68584 -0.46302,-13.15968 l -0.44076,-11.77062 -0.46302,-0.0889 -0.46303,-0.0889 0.003,2.46679 c 0.003,2.30233 0.27179,10.12037 0.68239,19.86315 l 0.17563,4.16718 h 0.49532 0.49532 l -0.0223,-1.38906 z m 1.85524,-1.32292 c -0.0332,-4.71168 -0.90086,-23.43158 -1.09506,-23.62578 -0.10226,-0.10226 -0.36567,-0.11696 -0.58536,-0.0327 -0.31675,0.12155 -0.37401,0.49798 -0.27663,1.81862 0.0675,0.91594 0.24223,5.53488 0.38821,10.2643 0.14599,4.72943 0.33788,9.87888 0.42644,11.44323 l 0.161,2.84427 h 0.50025 0.50025 l -0.0191,-2.71198 z m 2.01778,1.19063 c -0.0794,-0.83675 -0.32685,-6.16479 -0.55002,-11.8401 -0.49335,-12.54612 -0.54666,-13.1566 -1.13889,-13.04223 l -0.44206,0.0854 0.0825,2.50967 c 0.0454,1.38033 0.25337,6.67687 0.46224,11.7701 0.20887,5.09323 0.38012,9.8855 0.38055,10.64948 l 7.8e-4,1.38906 h 0.6746 0.67459 z m 1.70175,0 c -0.002,-0.83675 -0.2385,-6.46245 -0.52543,-12.50156 -0.28693,-6.03912 -0.52337,-11.30762 -0.52543,-11.70781 -0.003,-0.56476 -0.12982,-0.7276 -0.56709,-0.7276 h -0.56335 l 0.15772,1.78594 c 0.0867,0.98225 0.35181,6.78655 0.58903,12.89843 0.23722,6.11187 0.47555,11.26132 0.52962,11.44322 0.0541,0.18191 0.28064,0.33073 0.50349,0.33073 0.3173,0 0.40437,-0.32994 0.40144,-1.52135 z m -8.55092,-32.14687 c -0.0909,-1.78263 -0.29677,-7.3488 -0.45742,-12.36927 -0.16066,-5.02047 -0.33805,-9.276951 -0.39421,-9.458851 -0.0562,-0.1819 -0.28443,-0.33073 -0.50728,-0.33073 -0.32347,0 -0.40593,0.36018 -0.40891,1.78594 -0.005,2.528811 0.81899,22.884121 0.94285,23.283331 0.0564,0.1819 0.30233,0.33073 0.54644,0.33073 h 0.44385 z m 1.7709,3.03625 c 0.0951,-0.15382 -0.75528,-24.787051 -0.86746,-25.128951 -0.0119,-0.0364 -0.25421,-0.0661 -0.5384,-0.0661 h -0.5167 l 0.11614,1.25677 c 0.0639,0.69123 0.23753,5.185831 0.38591,9.988021 0.37147,12.02276 0.51372,14.15521 0.94422,14.15521 0.19231,0 0.40664,-0.0922 0.47629,-0.2049 z m 1.88423,-2.50708 c -0.129,-2.13741 -0.92131,-21.330791 -0.92131,-22.318311 0,-0.20334 -0.2522,-0.36971 -0.56046,-0.36971 h -0.56046 l 0.15819,2.18281 c 0.087,1.200551 0.28364,6.111881 0.43698,10.914071 0.15333,4.80218 0.34383,9.47539 0.42333,10.38489 l 0.14454,1.65365 h 0.51345 0.51345 z m 1.87605,1.85208 c -0.0677,-0.32742 -0.33229,-5.93637 -0.58791,-12.46433 -0.36607,-9.348321 -0.54009,-11.897911 -0.81936,-12.005081 -0.19501,-0.0748 -0.42144,-0.0692 -0.50317,0.0125 -0.16061,0.1606 0.62374,22.072791 0.85649,23.927711 0.11193,0.89196 0.24821,1.12448 0.6591,1.12448 0.39727,0 0.4893,-0.13874 0.39485,-0.59531 z m 1.56513,-0.52916 c -0.0689,-0.61847 -0.36697,-5.70839 -0.66234,-11.31094 -0.60316,-11.440911 -0.74162,-13.123101 -1.05324,-12.796261 -0.11985,0.1257 0.006,5.050581 0.2793,10.944181 0.27346,5.89359 0.50084,11.51929 0.50529,12.50156 l 0.008,1.78594 h 0.52411 0.5241 z m 48.37231,65.12651 c -1.05321,-0.30472 -2.38575,-1.88581 -2.7645,-3.28016 -0.46007,-1.69375 -0.13259,-4.00546 0.74218,-5.23904 1.14938,-1.62084 2.2161,-2.08282 4.58544,-1.98589 2.36518,0.0968 3.48748,0.73885 4.25836,2.43626 0.98006,2.15803 0.47269,5.79528 -0.98953,7.09368 -1.28995,1.14545 -3.79537,1.56438 -5.83195,0.97515 z m 3.89771,-2.23239 c 1.21947,-1.1036 1.19878,-4.5218 -0.0353,-5.83545 -1.06954,-1.13848 -3.05236,-0.7839 -3.81006,0.68134 -0.49164,0.95073 -0.5097,3.60932 -0.0304,4.47409 0.74064,1.33629 2.75925,1.69046 3.87577,0.68002 z m 15.42719,2.23506 c -3.31991,-0.96176 -4.08111,-7.127 -1.18122,-9.5671 0.99523,-0.83744 2.14327,-1.09388 4.22341,-0.94342 2.93487,0.21229 4.40639,2.16203 4.23238,5.60786 -0.12119,2.4 -0.98597,3.90442 -2.68874,4.6775 -1.17946,0.53549 -3.17619,0.63353 -4.58583,0.22516 z m 3.32243,-1.94743 c 1.70028,-0.87926 2.01693,-4.53993 0.52964,-6.12308 -0.88432,-0.94131 -2.41909,-0.88007 -3.43628,0.13712 l -0.7734,0.7734 v 1.75328 c 0,3.17002 1.50451,4.58428 3.68004,3.45928 z m 8.02944,1.98049 c -0.3265,-0.14019 -0.83207,-0.64596 -1.12349,-1.12393 l -0.52984,-0.86904 -9.9e-4,-4.16719 -9.9e-4,-4.16719 h 1.1711 1.17111 l 0.0857,3.85835 0.0857,3.85835 0.52916,0.39514 c 0.64854,0.48427 2.15582,0.33684 3.13839,-0.30697 l 0.69807,-0.45739 v -3.67374 -3.67374 h 1.19063 1.19062 v 5.15938 5.15937 h -1.19062 c -0.88195,0 -1.19063,-0.10289 -1.19063,-0.39687 0,-0.50082 -0.12974,-0.49743 -0.92589,0.0242 -0.76602,0.50192 -3.4603,0.74091 -4.29796,0.38124 z m 44.18081,-0.0799 c -1.44656,-0.5536 -2.62621,-1.69102 -3.40526,-3.28335 l -0.74197,-1.51652 -0.002,-2.39305 c -0.002,-1.92875 0.11496,-2.64974 0.60036,-3.71597 1.58216,-3.47545 4.74661,-4.95434 8.5281,-3.98557 0.93478,0.23948 1.80281,0.53863 1.92896,0.66478 0.19469,0.19469 -0.2391,2.13016 -0.47742,2.13016 -0.0437,0 -0.5069,-0.17859 -1.02932,-0.39687 -1.22028,-0.50987 -3.42189,-0.50913 -4.40928,0.002 -2.64961,1.37017 -3.13907,6.95473 -0.82294,9.38949 1.24044,1.30397 2.48183,1.56713 4.66224,0.98834 l 1.5875,-0.4214 0.33073,0.42943 c 0.61542,0.79908 0.40125,1.57366 -0.52916,1.91383 -1.27443,0.46593 -5.19205,0.58888 -6.22065,0.19523 z m 10.89174,-0.16784 c -1.89173,-0.85913 -2.88132,-3.34102 -2.45208,-6.14983 0.40639,-2.65927 2.26666,-4.19435 5.08292,-4.19435 2.83243,0 4.39334,1.22705 4.94573,3.88793 0.59714,2.8764 -0.60117,5.63201 -2.85949,6.57559 -1.26141,0.52706 -3.41367,0.4726 -4.71708,-0.11934 z m 3.8308,-1.7798 c 1.26138,-0.8835 1.73708,-3.43081 0.97936,-5.24429 -0.44194,-1.05772 -1.1023,-1.46801 -2.36273,-1.46801 -1.79225,0 -2.96415,2.52302 -2.30644,4.96557 0.50901,1.89032 2.28469,2.73091 3.68981,1.74673 z m 7.81501,1.98071 c -0.30265,-0.14686 -0.77735,-0.64482 -1.05489,-1.10657 l -0.50461,-0.83956 -0.0973,-4.16719 -0.0973,-4.16719 h 1.35064 1.35064 v 3.79545 3.79545 l 0.52318,0.47348 c 0.60567,0.54812 2.033,0.43067 3.07668,-0.25318 l 0.63347,-0.41506 v -3.71256 -3.71257 l 1.20051,0.0806 1.2005,0.0806 0.0145,5.02708 0.0144,5.02708 -1.08265,0.0814 c -0.83855,0.063 -1.08264,-0.0116 -1.08264,-0.33073 0,-0.5155 0.0258,-0.51761 -1.36017,0.11127 -1.23208,0.55907 -3.18271,0.66992 -4.08491,0.23215 z m 25.0485,-0.0474 c -2.78883,-1.05784 -3.77738,-5.47302 -1.89128,-8.44709 1.00545,-1.58544 2.42713,-2.15337 5.02328,-2.00667 2.16256,0.12219 2.52588,0.36813 2.26934,1.53614 -0.14204,0.64671 -0.28436,0.7967 -0.62207,0.65557 -0.86743,-0.36249 -2.88176,-0.43942 -3.45619,-0.13199 -2.12907,1.13944 -2.13,5.40652 -0.001,6.50725 0.8118,0.41981 1.16544,0.42635 3.52354,0.0653 0.35694,-0.0547 0.56261,0.13574 0.70541,0.65302 0.1644,0.5955 0.0962,0.78659 -0.37,1.03607 -0.84134,0.45028 -4.12161,0.53413 -5.18061,0.13244 z m -137.60759,-7.46652 v -7.60291 l 2.9861,0.13178 c 3.75911,0.16589 5.28883,0.74145 5.9078,2.22284 0.64922,1.55381 -0.0211,3.82066 -1.24465,4.209 -0.75046,0.23818 -0.6177,0.47228 0.54463,0.96037 2.84777,1.19586 2.85206,5.28417 0.007,6.95531 l -0.92514,0.54347 -3.63802,0.0915 -3.63802,0.0915 z m 5.68854,5.44223 c 1.95383,-0.4527 2.63259,-2.39865 1.35481,-3.88414 l -0.62956,-0.73191 -1.88398,-0.10645 -1.88398,-0.10646 v 2.5434 2.5434 l 0.99219,-0.006 c 0.5457,-0.003 1.46844,-0.11666 2.05052,-0.25153 z m -0.13102,-7.01886 c 1.49011,-0.77057 1.24332,-3.31517 -0.36057,-3.71772 -0.78488,-0.19699 -2.56393,-0.049 -2.55665,0.21265 0.003,0.10914 0.005,1.03187 0.005,2.05052 v 1.85208 h 1.07148 c 0.58931,0 1.4174,-0.17889 1.84021,-0.39753 z m 19.37386,3.93094 0.0717,-5.19784 1.03441,-0.0277 c 0.77395,-0.0207 1.06458,0.0879 1.15424,0.43114 l 0.11983,0.45881 0.66738,-0.52496 c 0.41234,-0.32434 1.07083,-0.52496 1.72311,-0.52496 h 1.05572 l -0.16536,0.82682 c -0.091,0.45476 -0.16537,0.93101 -0.16537,1.05834 0,0.12733 -0.40066,0.23151 -0.89036,0.23151 -0.50012,0 -1.19591,0.24034 -1.5875,0.54837 l -0.69714,0.54837 v 3.68496 3.68496 h -1.19622 -1.19621 z m 43.65779,-2.40893 0.0702,-7.60677 1.19063,-0.0785 1.19062,-0.0785 -0.0851,2.55989 c -0.0468,1.40794 0.0214,2.6664 0.15159,2.79658 0.1392,0.1392 0.63391,0.0707 1.20108,-0.16625 0.53041,-0.22162 1.607,-0.40295 2.39241,-0.40295 2.78131,0 3.35147,1.16428 3.35147,6.84372 v 3.73961 h -1.32291 -1.32292 v -3.81756 c 0,-4.29078 -0.13502,-4.6491 -1.75183,-4.6491 -1.23063,0 -2.43744,0.65835 -2.63267,1.43619 -0.0873,0.34805 -0.11884,2.07245 -0.07,3.83201 l 0.0889,3.19918 -1.26082,-2.6e-4 -1.26083,-2.7e-4 0.0702,-7.60677 z m 54.68726,7.40834 c -0.0107,-0.10914 -0.0191,-2.4011 -0.0188,-5.09323 l 5.3e-4,-4.89479 0.95676,-0.15873 c 0.74792,-0.12409 1.01087,-0.0576 1.20471,0.30459 l 0.24796,0.46332 0.98667,-0.50303 c 1.25469,-0.63968 3.68239,-0.67788 4.54802,-0.0716 1.11233,0.77911 1.35384,1.8806 1.35384,6.17464 l 9e-5,3.97724 h -1.19063 -1.19062 l -0.004,-3.50573 c -0.005,-4.17456 -0.21148,-4.79041 -1.64917,-4.91036 -0.53869,-0.045 -1.39916,0.11745 -1.91214,0.36088 l -0.93271,0.44259 v 3.80631 3.80631 h -1.19062 c -0.65485,0 -1.19936,-0.0893 -1.21003,-0.19843 z m 22.2444,-4.93315 v -5.13159 l 1.07208,-0.10223 c 0.58965,-0.0562 1.12543,-0.0489 1.19063,0.0163 0.0652,0.0652 0.11854,2.42041 0.11854,5.23382 v 5.11528 h -1.19062 -1.19063 z m 5.61834,-2.4708 0.0702,-7.60238 0.99009,-0.16083 c 0.54454,-0.0885 1.05056,-0.10036 1.12448,-0.0264 0.0739,0.0739 0.13439,3.56735 0.13439,7.76321 v 7.62881 h -1.19468 -1.19468 z m -5.30999,-4.72632 c -0.85462,-0.5986 -0.69072,-1.72932 0.30093,-2.07606 1.38335,-0.4837 2.49607,0.98067 1.50117,1.97557 -0.63339,0.63339 -1.0112,0.65445 -1.8021,0.10049 z m -35.13583,-1.29536 c -1.89669,-0.4125 -3.27252,-1.06379 -3.27252,-1.54914 0,-0.18862 0.19364,-0.91124 0.43031,-1.60583 l 0.43031,-1.26288 0.69417,0.1396 c 0.38179,0.0768 1.34902,0.33381 2.14938,0.57118 1.75149,0.51943 4.12042,0.39276 5.13926,-0.27481 1.01034,-0.66201 1.44281,-1.66318 1.64139,-3.79982 l 0.17355,-1.86732 -1.55887,0.85476 -1.55887,0.85477 -2.11667,-0.005 -2.11667,-0.005 -1.40243,-0.73372 c -2.57814,-1.34883 -3.96672,-4.08124 -4.00102,-7.87313 -0.0455,-5.03258 2.26171,-8.67643 6.12897,-9.67959 2.28166,-0.59185 3.84162,-0.35863 5.60488,0.83795 1.17775,0.79924 1.15349,0.79804 1.25797,0.0624 l 0.0845,-0.59532 h 1.98438 1.98437 v 9.92188 9.92187 l -0.4651,1.3313 c -1.4313,4.09697 -5.7731,5.93886 -11.21134,4.75611 z m 4.72291,-11.78759 c 0.54119,-0.1503 1.34486,-0.57694 1.78594,-0.94808 l 0.80197,-0.67482 v -3.76681 -3.76682 l -0.59893,-0.56266 c -0.71598,-0.67263 -2.33017,-1.38167 -3.1455,-1.38167 -0.32253,0 -1.0932,0.24533 -1.7126,0.54518 -1.62788,0.78804 -2.48047,2.57671 -2.48047,5.20381 0,2.81387 0.80823,4.50427 2.51354,5.25702 0.97186,0.42898 1.56189,0.44872 2.83605,0.0949 z m 28.92811,5.21409 c -0.86654,-0.63363 -0.36379,-1.09471 1.19744,-1.0982 l 1.43423,-0.003 0.0815,-0.70449 0.0815,-0.70448 -1.06809,0.14326 c -1.29014,0.17304 -2.17352,-0.32162 -2.65645,-1.48751 -0.95692,-2.31022 1.51799,-5.20795 3.4204,-4.00474 0.24545,0.15524 0.51152,0.14288 0.72423,-0.0337 0.18493,-0.15347 0.51634,-0.20993 0.73648,-0.12546 0.32539,0.12487 0.40024,0.72666 0.40024,3.21775 0,3.23974 -0.29475,4.3397 -1.30826,4.88211 -0.71935,0.38499 -2.46941,0.33819 -3.0432,-0.0814 z m 2.33336,-3.68986 c 0.35615,-0.26042 0.44496,-0.63884 0.3813,-1.62475 -0.0682,-1.05562 -0.19047,-1.32476 -0.68452,-1.50636 -1.35146,-0.49676 -2.23429,1.82541 -1.11826,2.94144 0.62083,0.62083 0.79928,0.64464 1.42148,0.18967 z m -117.73139,2.43526 c -1.23824,-0.35934 -3.16968,-2.20985 -3.92322,-3.75882 -1.87539,-3.85502 -1.18772,-9.5399 1.51602,-12.53261 2.4075,-2.66482 6.78032,-3.20664 9.43194,-1.16867 l 0.6492,0.49896 0.28465,-0.57096 0.28466,-0.57095 h 1.84426 1.84427 l 0.1323,7.19717 c 0.0785,4.27273 0.2398,7.29942 0.39687,7.4488 0.14552,0.13839 0.50271,0.29397 0.79375,0.34573 0.41646,0.0741 0.5467,0.33731 0.61148,1.23586 0.12333,1.7106 -0.23669,1.98485 -2.40214,1.82991 -1.40792,-0.10074 -1.94917,-0.26364 -2.45511,-0.73895 -0.35696,-0.33535 -0.64902,-0.76756 -0.64902,-0.96048 0,-0.51438 -0.37791,-0.4286 -0.95118,0.21591 -0.94295,1.06015 -2.98888,1.81141 -4.86965,1.78814 -0.94589,-0.0117 -2.08847,-0.12827 -2.53908,-0.25904 z m 5.10154,-3.69949 c 0.40966,-0.15445 1.13178,-0.65405 1.60472,-1.11024 l 0.8599,-0.82942 v -3.76104 -3.76103 l -0.80578,-0.67802 c -2.22958,-1.87607 -5.10702,-1.25793 -6.34763,1.36361 -0.84665,1.78908 -0.84374,5.04512 0.006,6.80062 0.95433,1.97139 2.719,2.71586 4.6827,1.97552 z m 13.31254,3.61054 c -2.83033,-0.84509 -2.95849,-0.99974 -2.34287,-2.82723 0.51379,-1.52518 0.62143,-1.57027 2.28893,-0.95878 0.99046,0.3632 2.17626,0.55945 3.45018,0.57099 l 1.94103,0.0176 0.50636,-0.62462 c 1.22106,-1.50623 0.40159,-2.50024 -3.19133,-3.87104 -2.95843,-1.12873 -4.04596,-1.89233 -4.79993,-3.37024 -0.70876,-1.38928 -0.60727,-3.80836 0.20574,-4.9038 1.87001,-2.51964 6.22461,-3.38657 10.20252,-2.03116 1.66807,0.56837 1.84017,0.82779 1.44253,2.17451 -0.50077,1.69601 -0.72766,1.81977 -2.38074,1.29869 -2.88605,-0.90974 -5.20576,-0.4128 -5.20576,1.11521 0,1.01192 0.50376,1.38259 3.63613,2.67551 3.05907,1.26267 4.33285,2.38139 4.83506,4.24646 0.62061,2.30474 -0.65898,4.90271 -3.02218,6.13602 -1.3566,0.70799 -5.69695,0.90988 -7.56567,0.35191 z m 17.58167,0.002 c -1.0563,-0.46009 -2.14706,-1.77907 -2.48878,-3.00949 -0.1503,-0.54118 -0.27394,-3.44799 -0.27475,-6.45958 l -10e-4,-5.47571 -1.25677,-0.0807 -1.25677,-0.0806 -0.0856,-0.8965 c -0.0471,-0.49308 -0.0151,-1.17769 0.0712,-1.52136 l 0.15682,-0.62485 h 1.18559 1.18558 v -2.21656 c 0,-1.50257 0.11145,-2.30905 0.34598,-2.5037 0.19029,-0.15792 1.17256,-0.32133 2.18282,-0.36312 l 1.83683,-0.076 0.13229,2.51354 0.13229,2.51354 2.38125,0.13229 2.38125,0.1323 v 1.4552 1.45521 l -2.38125,0.13229 -2.38125,0.1323 v 5.21838 5.21839 l 0.58227,0.58205 c 0.63438,0.63414 1.55108,0.7338 3.55744,0.38676 l 1.22928,-0.21263 0.29402,1.37094 c 0.16171,0.75403 0.22849,1.47697 0.14841,1.60655 -0.55191,0.89301 -6.06129,1.37453 -7.67662,0.67093 z m 64.30687,0.21128 c -0.94917,-0.22851 -2.90303,-0.96614 -3.22322,-1.21684 -0.23935,-0.18741 -0.22717,-0.52945 0.0519,-1.45668 0.53863,-1.78976 0.63419,-1.82892 2.87451,-1.17797 3.12759,0.90876 5.41941,0.61609 5.85215,-0.74733 0.43488,-1.37018 -0.3938,-2.07977 -4.12003,-3.52791 -3.56413,-1.38515 -4.74259,-2.71169 -4.74259,-5.33853 0,-2.18664 1.03783,-3.72616 3.175,-4.70981 2.14624,-0.98782 6.97261,-0.71498 8.91758,0.50413 l 0.58321,0.36556 -0.37051,1.23111 c -0.52929,1.75868 -0.65837,1.82841 -2.45282,1.32491 -2.33923,-0.65636 -4.06527,-0.58333 -4.80423,0.20325 -1.14473,1.21851 -0.41356,2.05727 3.02156,3.46623 4.26205,1.74814 5.23555,2.86674 5.10284,5.86343 l -0.0841,1.89881 -0.81324,1.0116 c -0.44728,0.55639 -1.33838,1.30626 -1.98021,1.6664 l -1.16698,0.65479 -2.64583,0.0561 c -1.45521,0.0309 -2.88396,-0.001 -3.175,-0.0713 z m -129.50424,-0.6152 c -0.1774,-0.33147 -0.27389,-4.79425 -0.27389,-12.6676 v -12.15583 l 0.37179,-0.30856 c 0.23333,-0.19364 1.14484,-0.27962 2.4474,-0.23084 l 2.0756,0.0777 0.0717,5.22552 0.0717,5.22552 h 5.28048 5.28048 l 0.0717,-5.22552 0.0717,-5.22552 2.31763,-0.0765 2.31763,-0.0765 -0.0687,12.90878 -0.0687,12.90877 -1.94271,0.0782 c -1.2045,0.0485 -2.08421,-0.0392 -2.3151,-0.23083 -0.29785,-0.2472 -0.3724,-1.38839 -0.3724,-5.70063 v -5.39156 h -5.29167 -5.29166 v 5.52794 5.52794 l -0.41852,0.1606 c -0.23018,0.0883 -1.23802,0.1606 -2.23965,0.1606 h -1.82113 z m 76.5178,0.29143 c -0.26084,-0.16557 -0.31902,-2.15725 -0.26459,-9.05793 l 0.0698,-8.84568 h 2.11666 2.11667 l 0.0698,8.69973 c 0.0497,6.19964 -0.0166,8.80383 -0.23084,9.06197 -0.33132,0.39922 -3.30092,0.5079 -3.87749,0.14191 z m 9.25081,-0.0972 c -0.23375,-0.23375 -0.3175,-2.55764 -0.3175,-8.81062 0,-6.25299 0.0838,-8.57687 0.3175,-8.81063 0.18492,-0.18491 1.07157,-0.3175 2.12328,-0.3175 h 1.80579 l 0.15778,0.78891 0.15778,0.78891 0.78591,-0.55963 c 0.43226,-0.30779 1.49998,-0.78186 2.37272,-1.05348 2.83619,-0.88273 5.12255,-0.55096 6.82928,0.99096 1.70052,1.53632 1.85413,2.37936 1.85413,10.17566 v 6.80372 l -0.41852,0.1606 c -0.59419,0.22802 -3.35615,0.19178 -3.73491,-0.049 -0.22818,-0.14505 -0.33936,-1.99113 -0.39688,-6.58975 l -0.0799,-6.38824 -0.62854,-0.66852 c -0.34569,-0.36769 -0.96879,-0.74325 -1.38465,-0.83459 -0.94275,-0.20706 -3.35773,0.47408 -4.29512,1.21143 l -0.70315,0.5531 v 6.14559 c 0,4.42712 -0.0888,6.23436 -0.3175,6.46308 -0.41818,0.41819 -3.70932,0.41819 -4.1275,0 z m 55.51238,-0.86975 c -0.46538,-0.56075 -0.13215,-1.194 0.62831,-1.194 0.73796,0 0.99513,0.44713 0.64675,1.12448 -0.29144,0.56667 -0.83774,0.59645 -1.27506,0.0695 z m 10.44825,0.14338 c -1.10372,-0.45174 -1.5875,-1.31786 -1.5875,-2.84207 v -1.44913 l 0.86407,-0.77205 c 1.44705,-1.29294 3.63529,-0.94912 4.41484,0.69367 0.508,1.07052 0.51574,1.7369 0.0336,2.89084 -0.58107,1.39069 -2.28625,2.06761 -3.72501,1.47874 z m 2.10166,-1.66083 c 0.56758,-0.81033 0.51573,-1.95394 -0.11729,-2.58696 -0.63698,-0.63699 -0.77188,-0.64734 -1.52862,-0.11729 -0.6465,0.45282 -0.80571,1.86203 -0.31415,2.78051 0.37155,0.69425 1.44976,0.6523 1.96006,-0.0763 z m 8.45218,1.53264 c -0.26344,-0.68651 0.1058,-1.25391 0.75591,-1.1616 0.43729,0.0621 0.5965,0.26125 0.5965,0.74616 0,0.48491 -0.15921,0.68407 -0.5965,0.74617 -0.35779,0.0508 -0.66029,-0.0815 -0.75591,-0.33073 z m 3.32685,-0.10519 -0.65153,-0.52706 v -2.47128 -2.47128 h 0.66146 0.66146 l 0.0769,2.02701 c 0.0881,2.32406 0.43652,2.87616 1.50716,2.38834 l 0.6423,-0.29265 0.0775,-2.06135 0.0775,-2.06135 h 0.66146 0.66146 l 0.0751,2.84742 0.0751,2.84743 -1.13347,-0.0253 c -0.6234,-0.0139 -1.49512,0.054 -1.93715,0.15092 -0.59603,0.13067 -0.97202,0.04 -1.4552,-0.35086 z m -7.51252,-0.0162 c -0.25487,-0.4124 -2.00255,-5.09139 -2.00255,-5.36136 0,-0.1427 0.32717,-0.22179 0.72704,-0.17574 l 0.72703,0.0837 0.60797,1.70983 c 0.33439,0.94041 0.64949,1.75135 0.70023,1.80209 0.0507,0.0507 0.32386,-0.65292 0.60694,-1.56368 0.53247,-1.7131 1.0224,-2.27947 1.7352,-2.00595 l 0.41382,0.1588 -1.10547,2.79152 -1.10547,2.79152 -0.57969,0.002 c -0.31884,0.001 -0.6451,-0.10363 -0.72505,-0.23297 z m 13.34329,-3.84805 v -4.08321 l 0.52679,-0.1672 c 0.89904,-0.28535 1.06071,0.0878 1.06071,2.44823 v 2.28547 l 0.81664,-1.11046 c 0.56766,-0.7719 1.01132,-1.11045 1.4552,-1.11045 0.78776,0 0.82572,0.54237 0.0849,1.2128 -1.10221,0.99749 -1.11599,1.3319 -0.11609,2.81667 0.51389,0.76308 0.93435,1.47831 0.93435,1.58939 0,0.11108 -0.35217,0.20197 -0.7826,0.20197 h -0.7826 l -0.73876,-1.25677 -0.73875,-1.25677 -0.0806,1.25677 -0.0806,1.25677 h -0.77925 -0.77925 z m -226.17807,-7.69963 c -1.11098,-0.48168 -2.87295,-1.86426 -3.23285,-2.53674 l -0.27276,-0.50966 2.32777,-1.08049 c 3.02691,-1.40501 6.42877,-2.87577 6.65071,-2.87537 0.0962,1.7e-4 0.20783,1.16103 0.24797,2.57969 l 0.073,2.57937 -2.28617,1.05833 c -1.25739,0.58209 -2.3618,1.08317 -2.45423,1.11353 -0.0924,0.0304 -0.56648,-0.11754 -1.05342,-0.32866 z m 231.86661,-1.89134 c -9.18793,-4.21262 -13.3336,-5.77325 -22.35729,-8.41636 -17.57076,-5.14663 -35.78177,-8.13711 -62.83855,-10.3189 -7.11771,-0.57395 -24.16362,-0.99493 -32.27916,-0.79718 -9.38749,0.22873 -30.76873,1.55735 -36.5125,2.26886 -7.25607,0.89885 -19.84289,2.81312 -24.43614,3.71637 -2.96239,0.58255 -5.41632,1.02231 -5.45319,0.97726 -0.0369,-0.0451 -0.14059,-0.99197 -0.23049,-2.10427 l -0.16346,-2.02235 4.29372,-0.81581 c 22.52163,-4.27914 47.61368,-5.95465 76.26039,-5.09225 14.47994,0.43591 22.58351,1.0145 33.86667,2.41812 27.56038,3.42849 47.96449,8.65977 66.00082,16.92153 3.94886,1.80882 7.42105,3.96685 7.42105,4.6123 0,0.26583 -0.30179,0.15199 -3.57187,-1.34732 z m -100.55369,-6.55442 c -0.72016,-0.72016 -0.88268,-2.33214 -0.31029,-3.07766 1.38903,-1.80917 4.2406,-1.10507 4.5972,1.13513 l 0.15599,0.97992 -0.80602,0.80602 c -1.0624,1.06239 -2.6622,1.13128 -3.63688,0.15659 z m 46.18181,-12.99318 c -11.40755,-2.10131 -22.23025,-3.4849 -33.99896,-4.3465 -4.2201,-0.30895 -8.30008,-0.62334 -9.0666,-0.69863 l -1.3937,-0.1369 -0.54489,-1.06807 c -0.75661,-1.48309 -1.26085,-4.14805 -1.31738,-6.96248 -0.0379,-1.88664 0.0279,-2.37239 0.31654,-2.3386 0.2004,0.0235 2.15031,0.65576 4.33312,1.40511 17.67136,6.06648 34.01101,9.65918 47.69114,10.48616 1.63711,0.099 2.97657,0.25869 2.97657,0.35496 0,0.40075 -1.84397,1.90321 -3.56768,2.90694 -1.01634,0.59182 -1.9093,1.06055 -1.98437,1.04163 -0.0751,-0.0189 -1.62478,-0.30856 -3.44379,-0.64362 z m -128.32292,-2.20393 c 0,-2.2043 1.00364,-33.412731 1.19002,-37.003968 l 0.15448,-2.976563 h -0.40766 c -0.56098,0 -0.54876,-0.0558 0.66638,-3.042708 l 1.07637,-2.645833 4.71064,-4.856487 4.71064,-4.856488 2.48238,2.845366 c 1.36531,1.564951 3.51267,4.019432 4.77192,5.454403 l 2.28954,2.609038 -0.28341,0.923438 c -0.28654,0.933627 -0.55742,1.142103 -0.85609,0.658855 -0.0899,-0.145521 -0.27556,-0.264584 -0.41249,-0.264584 -0.15345,0 -0.24897,7.953024 -0.24897,20.729641 v 20.72965 l -5.2579,0.71753 c -2.89185,0.39465 -7.32693,1.12664 -9.85573,1.62667 -2.5288,0.50002 -4.62759,0.90957 -4.66397,0.91011 -0.0364,5.3e-4 -0.0661,-0.7006 -0.0661,-1.55807 z m 1.82488,0.52313 c 0.30307,-0.19191 0.47613,-4.0159 0.96073,-21.22876 0.32508,-11.547081 0.54725,-21.042739 0.4937,-21.101462 -0.0535,-0.05872 -0.2964,0.357995 -0.53966,0.926041 l -0.4423,1.032812 -0.60474,17.991669 c -0.80838,24.0501 -0.81471,22.9793 0.13227,22.3797 z m 2.82697,-0.55158 c 0.22335,0 0.39129,-0.29451 0.41488,-0.7276 l 0.0396,-0.7276 0.11174,0.74329 c 0.18107,1.20449 0.72185,0.66021 0.89033,-0.89613 l 0.15531,-1.43466 0.0431,1.37101 0.0431,1.37101 0.72761,-0.0769 0.7276,-0.0769 0.17737,-2.22012 c 0.36119,-4.52121 0.38021,-10.02534 0.0346,-10.02534 -0.22652,0 -0.35079,0.73866 -0.41175,2.4474 l -0.0873,2.4474 -0.0549,-2.57969 c -0.0321,-1.5068 -0.16495,-2.57969 -0.31949,-2.57969 -0.14552,0 -0.28364,0.38695 -0.30693,0.8599 l -0.0423,0.85989 -0.10671,-0.85989 c -0.0647,-0.52159 -0.25626,-0.8599 -0.48683,-0.8599 -0.29064,0 -0.39248,0.45152 -0.43268,1.91823 l -0.0526,1.91823 -0.0913,-1.91823 c -0.0696,-1.46125 -0.1831,-1.91823 -0.47659,-1.91823 -0.29706,0 -0.39733,0.43924 -0.43786,1.91823 l -0.0526,1.91823 -0.0913,-1.91823 c -0.0502,-1.05503 -0.18988,-1.91823 -0.31035,-1.91823 -0.12047,0 -0.29573,1.57758 -0.38948,3.50573 -0.0937,1.92815 -0.24452,4.92376 -0.33506,6.65691 l -0.16461,3.15116 0.45503,-0.17461 c 0.25027,-0.096 0.62389,-0.17461 0.83027,-0.17461 z m 2.58979,-3.70416 c 0,-1.52797 0.0437,-2.15305 0.0972,-1.38907 0.0534,0.76399 0.0534,2.01415 0,2.77813 -0.0534,0.76398 -0.0972,0.13891 -0.0972,-1.38906 z m -2.90824,-1.32292 c 0,-1.67349 0.043,-2.3581 0.0955,-1.52135 0.0525,0.83674 0.0525,2.20596 0,3.0427 -0.0525,0.83675 -0.0955,0.15214 -0.0955,-1.52135 z m 1.05365,-0.52917 c 0,-1.38244 0.0446,-1.94799 0.0991,-1.25677 0.0545,0.69123 0.0545,1.82232 0,2.51354 -0.0545,0.69123 -0.0991,0.12568 -0.0991,-1.25677 z m 1.06193,-1.71979 c 5.3e-4,-1.60073 0.0442,-2.22146 0.0968,-1.3794 0.0527,0.84206 0.0522,2.15174 -10e-4,2.91042 -0.0533,0.75867 -0.0964,0.0697 -0.0958,-1.53102 z m 129.41457,4.97644 c -10.53778,-0.69747 -17.65791,-1.84759 -29.311,-4.73462 -8.19722,-2.03085 -23.50159,-6.77025 -24.37735,-7.54909 -0.40211,-0.35761 0.36385,-3.15687 1.05215,-3.84517 0.97452,-0.97452 1.83954,-0.78704 5.15702,1.11768 4.8131,2.76343 7.86088,3.94964 14.93543,5.81294 3.43904,0.90578 10.66628,2.50203 11.32828,2.50203 0.25872,0 0.43618,-0.95567 0.67554,-3.63802 0.17855,-2.00091 0.3931,-4.0323 0.47676,-4.51419 l 0.15212,-0.87617 -0.56166,-0.14687 c -0.30892,-0.0808 -0.56167,-0.30568 -0.56167,-0.49975 0,-0.81667 0.88669,-0.80453 5.34345,0.0731 2.48361,0.4891 4.54036,0.8553 4.57055,0.81379 0.0302,-0.0415 0.56423,-2.99251 1.18675,-6.55777 0.62253,-3.565261 1.32633,-7.494331 1.564,-8.731251 l 0.43213,-2.248961 0.62112,-0.08793 0.62112,-0.08793 -0.16074,0.749388 c -0.40814,1.902733 -3.04164,17.133694 -2.97416,17.201174 0.0419,0.0419 3.5048,0.73429 7.69536,1.53869 4.19056,0.80439 7.73044,1.53128 7.86641,1.61531 0.41205,0.25466 -0.32033,0.89942 -1.02165,0.89942 -0.60561,0 -10.09671,-1.75032 -12.91075,-2.38096 -0.69418,-0.15556 -1.32995,-0.21503 -1.41284,-0.13214 -0.15179,0.15178 -1.88588,8.68013 -1.7872,8.78952 0.1943,0.21538 7.25038,1.16109 10.11282,1.35539 1.91097,0.12972 3.60761,0.31812 3.77031,0.41868 0.65533,0.40502 -0.0843,3.38016 -0.81515,3.27891 -0.18933,-0.0262 -0.93955,-0.0871 -1.66715,-0.13525 z m -16.43516,-7.15925 c 0.0813,-0.5457 0.21824,-1.70656 0.30432,-2.57969 0.0861,-0.87312 0.21559,-1.90356 0.2878,-2.28986 l 0.13129,-0.70236 -1.37701,-0.29531 c -0.75735,-0.16243 -1.44893,-0.22472 -1.53683,-0.13843 -0.17722,0.17395 -1.05963,6.27927 -0.9298,6.43319 0.12099,0.14344 1.74158,0.50638 2.40036,0.53756 0.46529,0.022 0.59964,-0.15809 0.71987,-0.9651 z"
       id="path322" /></g></svg>
