<?xml version="1.0" encoding="UTF-8" standalone="no"?>
<!-- Created with Inkscape (http://www.inkscape.org/) -->

<svg
   width="300"
   height="300"
   viewBox="0 0 79.374998 79.375002"
   version="1.1"
   id="svg832"
   inkscape:version="1.2.1 (9c6d41e410, 2022-07-14)"
   sodipodi:docname="langham-logo.svg"
   xmlns:inkscape="http://www.inkscape.org/namespaces/inkscape"
   xmlns:sodipodi="http://sodipodi.sourceforge.net/DTD/sodipodi-0.dtd"
   xmlns="http://www.w3.org/2000/svg"
   xmlns:svg="http://www.w3.org/2000/svg">
  <sodipodi:namedview
     id="namedview834"
     pagecolor="#ffffff"
     bordercolor="#666666"
     borderopacity="1.0"
     inkscape:pageshadow="2"
     inkscape:pageopacity="0.0"
     inkscape:pagecheckerboard="0"
     inkscape:document-units="mm"
     showgrid="false"
     units="px"
     showguides="true"
     inkscape:guide-bbox="true"
     inkscape:zoom="4.040586"
     inkscape:cx="-67.564458"
     inkscape:cy="167.92119"
     inkscape:window-width="3440"
     inkscape:window-height="1361"
     inkscape:window-x="-9"
     inkscape:window-y="-9"
     inkscape:window-maximized="1"
     inkscape:current-layer="layer1"
     inkscape:showpageshadow="0"
     inkscape:deskcolor="#d1d1d1" />
  <defs
     id="defs829" />
  <g
     inkscape:label="Layer 1"
     inkscape:groupmode="layer"
     id="layer1">
    <rect
       style="display:inline;fill:#00004e;fill-opacity:1;stroke:none;stroke-width:0.79375;stroke-opacity:1"
       id="rect35569"
       width="79.375"
       height="79.375"
       x="0"
       y="0" />
    <g
       id="g42034"
       transform="translate(0.53444195,5.2008039)">
      <path
         d="m 24.214906,39.323676 h -2.864554 l -0.254,-1.509887 -0.01411,-0.04233 -1.382888,-0.02822 -1.15711,0.05644 -0.239888,1.523998 H 15.53658 l 2.765776,-9.129881 h 3.414886 z M 20.658908,35.711235 20.03802,32.719682 h -0.169333 l -0.790222,2.991553 0.790222,0.01411 z"
         id="path27833"
         style="font-weight:900;font-size:14.1111px;line-height:1.25;font-family:'Alegreya Sans SC';-inkscape-font-specification:'Alegreya Sans SC, Heavy';fill:#d7b759;fill-opacity:1;stroke-width:0.264583" />
      <path
         d="m 33.372993,36.346234 0.112889,2.977442 h -3.07622 l -2.56822,-4.88244 h -0.169333 l -0.01411,1.580443 0.112888,3.301997 h -2.56822 l 0.141111,-2.681109 -0.141111,-6.448772 h 3.07622 l 2.56822,4.88244 h 0.169333 l -0.08467,-4.783663 2.596442,-0.155222 z"
         id="path27835"
         style="font-weight:900;font-size:14.1111px;line-height:1.25;font-family:'Alegreya Sans SC';-inkscape-font-specification:'Alegreya Sans SC, Heavy';fill:#d7b759;fill-opacity:1;stroke-width:0.264583" />
      <path
         d="m 39.76531,30.038572 q 1.523999,0 2.638775,0.423333 l -0.606777,2.497665 h -0.225777 q -0.705555,-0.352777 -1.227666,-0.507999 -0.508,-0.155222 -1.114777,-0.155222 -0.649111,0 -1.001888,0.211666 -0.338667,0.211667 -0.493889,0.747888 -0.155222,0.536222 -0.155222,1.552221 0,1.030111 0.155222,1.580444 0.155222,0.536221 0.522111,0.761999 0.381,0.211666 1.086555,0.211666 0.197555,0 0.507999,-0.05644 v -0.451559 l -0.04233,-1.53811 2.582331,-0.183444 -0.04233,1.241776 v 2.497665 q -1.636888,0.620889 -3.259664,0.620889 -2.215443,0 -3.344331,-1.171222 -1.128888,-1.185332 -1.128888,-3.372553 0,-2.398887 1.326444,-3.654775 1.340554,-1.255888 3.824108,-1.255888 z"
         id="path27837"
         style="font-weight:900;font-size:14.1111px;line-height:1.25;font-family:'Alegreya Sans SC';-inkscape-font-specification:'Alegreya Sans SC, Heavy';fill:#d7b759;fill-opacity:1;stroke-width:0.264583" />
      <path
         d="m 51.929059,36.360345 0.112889,2.963331 h -2.836332 l 0.141111,-2.681109 -0.01411,-0.705555 -1.523999,-0.02822 -1.312332,0.04233 -0.01411,0.409222 0.112889,2.963331 h -2.836331 l 0.141111,-2.681109 -0.141111,-6.448772 h 2.878664 l -0.08467,3.457219 1.425221,0.02822 1.298221,-0.02822 -0.07056,-3.457219 h 2.878665 z"
         id="path27839"
         style="font-weight:900;font-size:14.1111px;line-height:1.25;font-family:'Alegreya Sans SC';-inkscape-font-specification:'Alegreya Sans SC, Heavy';fill:#d7b759;fill-opacity:1;stroke-width:0.264583" />
      <path
         d="m 61.524589,39.323676 h -2.864553 l -0.254,-1.509887 -0.01411,-0.04233 -1.382888,-0.02822 -1.15711,0.05644 -0.239889,1.523998 h -2.765776 l 2.765776,-9.129881 h 3.414886 z M 57.968592,35.711235 57.347703,32.719682 H 57.17837 l -0.790222,2.991553 0.790222,0.01411 z"
         id="path27841"
         style="font-weight:900;font-size:14.1111px;line-height:1.25;font-family:'Alegreya Sans SC';-inkscape-font-specification:'Alegreya Sans SC, Heavy';fill:#d7b759;fill-opacity:1;stroke-width:0.264583" />
      <path
         d="m 72.587673,39.323676 h -2.483554 l -0.07056,-2.765775 -0.155222,-2.30011 h -0.169333 l -1.467554,4.205108 h -2.130776 l -1.213555,-4.205108 h -0.169333 l -0.197556,2.031999 -0.141111,3.033886 h -2.356553 l 0.888999,-9.129881 h 3.259664 l 0.268111,1.298221 0.804333,3.316108 h 0.169333 l 0.888999,-3.217331 0.324556,-1.396998 h 3.21733 z"
         id="path27843"
         style="font-weight:900;font-size:14.1111px;line-height:1.25;font-family:'Alegreya Sans SC';-inkscape-font-specification:'Alegreya Sans SC, Heavy';fill:#d7b759;fill-opacity:1;stroke-width:0.264583" />
    </g>
    <path
       d="m 20.036026,48.32903 -0.416618,5.207735 H 6.252885 L 6.6000674,46.9403 6.252885,31.074067 h 7.082522 l -0.381901,15.171869 0.06943,1.597039 h 6.631184 z"
       id="path27831"
       style="font-weight:900;font-size:14.1111px;line-height:1.25;font-family:'Alegreya Sans SC';-inkscape-font-specification:'Alegreya Sans SC, Heavy';fill:#d7b759;fill-opacity:1;stroke-width:0.650966" />
    <g
       aria-label="TAXIS"
       id="text4439"
       style="font-weight:900;font-size:14.1111px;line-height:1.25;font-family:'Alegreya Sans SC';-inkscape-font-specification:'Alegreya Sans SC, Heavy';fill:#d7b759;stroke-width:0.264583">
      <path
         d="m 30.971561,48.051663 -0.155222,2.060221 -1.862665,-0.08467 h -0.169333 l -0.07056,3.993442 0.112889,2.963331 h -2.82222 l 0.141111,-2.681109 -0.07056,-4.275664 h -0.183444 l -1.876776,0.08467 -0.169333,-0.197555 0.155222,-2.060221 h 6.815661 z"
         id="path42070" />
      <path
         d="M 39.127763,56.98399 H 36.26321 l -0.254,-1.509888 -0.01411,-0.04233 -1.382888,-0.02822 -1.15711,0.05645 -0.239889,1.523999 h -2.765775 l 2.765775,-9.129882 H 36.6301 Z m -3.555997,-3.612442 -0.620888,-2.991553 h -0.169333 l -0.790222,2.991553 0.790222,0.01411 z"
         id="path42072" />
      <path
         d="m 45.449513,52.157993 2.751665,4.825997 h -3.372553 l -0.479777,-1.114777 -0.818444,-1.481666 -1.044222,1.622777 -0.451555,0.973666 h -2.864553 l 2.709331,-4.388552 -2.793998,-4.74133 h 3.386664 l 0.493889,1.142999 0.804332,1.439332 0.917222,-1.594554 0.423333,-0.987777 h 2.94922 z"
         id="path42074" />
      <path
         d="m 51.855932,54.020659 0.112889,2.963331 H 49.13249 l 0.141111,-2.681109 -0.141111,-6.448773 h 2.878664 z"
         id="path42076" />
      <path
         d="m 57.204034,47.684775 q 1.340554,0 2.652887,0.493888 l -0.451555,2.30011 -0.395111,0.169333 q -0.592666,-0.366889 -1.171222,-0.578555 -0.578555,-0.211667 -0.931332,-0.211667 -0.324555,0 -0.522111,0.127 -0.183444,0.127 -0.183444,0.338666 0,0.268111 0.282222,0.465667 0.296333,0.183444 0.973666,0.493888 0.790221,0.352778 1.298221,0.663222 0.508,0.296333 0.888999,0.832555 0.381,0.522111 0.381,1.298221 0,0.860777 -0.479777,1.566332 -0.465667,0.691444 -1.340555,1.100666 -0.874888,0.409222 -2.031998,0.409222 -1.439333,0 -3.019776,-0.536222 l 0.409222,-2.455331 0.282222,-0.169334 q 0.649111,0.493889 1.382888,0.790222 0.747888,0.282222 1.241777,0.282222 0.395111,0 0.564444,-0.127 0.183444,-0.141111 0.183444,-0.338666 0,-0.296333 -0.310444,-0.493889 -0.296333,-0.211666 -0.973666,-0.507999 -0.776111,-0.338667 -1.28411,-0.635 -0.493889,-0.310444 -0.860777,-0.832555 -0.366889,-0.536222 -0.366889,-1.312332 0,-0.888999 0.479778,-1.594554 0.479777,-0.719667 1.340554,-1.128888 0.860777,-0.409222 1.961443,-0.409222 z"
         id="path42078" />
    </g>
    <g
       id="g35845"
       transform="matrix(0.26458333,0,0,0.26458333,114.23854,29.689359)"
       style="display:inline">
      <g
         id="g35827"
         style="fill:#d7b759;fill-opacity:1"
         transform="matrix(-1.0872427,0,0,1.0872427,-155.07401,-65.078092)">
        <path
           d="M 95.086,51.648 C 94.371,50.458 93.083,44.36 93.083,44.36 l 2.146,-2.826 c 0,0 -23.736,-6.692 -35.604,-7.584 C 52.3,33.4 39.319,37.222 33.6,39.601 30.249,40.995 10.292,47.482 8.433,48.226 6.574,48.97 4.143,50.456 4,58.485 c -0.144,8.031 7.864,6.396 7.864,6.396 l 0.459,-0.002 c -0.375,-1.021 -0.591,-2.12 -0.591,-3.27 0,-5.248 4.27,-9.519 9.518,-9.519 5.248,0 9.517,4.271 9.517,9.519 0,1.123 -0.206,2.197 -0.565,3.199 l 40.332,-0.156 c -0.324,-0.956 -0.508,-1.979 -0.508,-3.043 0,-5.248 4.271,-9.519 9.518,-9.519 5.248,0 9.518,4.271 9.518,9.519 0,1.039 -0.172,2.037 -0.481,2.974 0.517,-0.001 4.028,-0.011 5.222,-0.147 1.286,-0.148 2.717,-2.379 3.145,-4.76 0.427,-2.376 -1.147,-6.838 -1.862,-8.028 z M 7.717,52.986 C 7.419,51.797 9.204,50.161 9.204,50.161 l 4.312,0.446 c 0,0 -5.502,3.57 -5.799,2.379 z m 16.587,-5.352 c 0,0 20.313,-9.988 30.578,-10.4 l -1.654,8.6 c -13.438,0.854 -27.343,1.73 -28.924,1.8 z m 55.051,-3.47 c 0,0 -11.232,0.721 -23.562,1.506 l 1.35,-8.395 c 9.878,0.505 24.217,3.696 24.217,3.696 z"
           id="path35821"
           style="fill:#d7b759;fill-opacity:1" />
        <path
           d="m 21.249,54.475 c -3.942,0 -7.138,3.195 -7.138,7.139 0,1.176 0.29,2.281 0.793,3.26 1.185,2.302 3.579,3.878 6.345,3.878 2.786,0 5.193,-1.601 6.369,-3.928 0.488,-0.966 0.769,-2.056 0.769,-3.21 0,-3.944 -3.196,-7.139 -7.138,-7.139 z"
           id="path35823"
           style="fill:#d7b759;fill-opacity:1" />
        <path
           d="m 79.543,54.475 c -3.941,0 -7.139,3.195 -7.139,7.139 0,1.086 0.25,2.111 0.686,3.033 1.141,2.422 3.598,4.104 6.453,4.104 2.875,0 5.348,-1.704 6.479,-4.154 0.42,-0.908 0.66,-1.918 0.66,-2.982 0,-3.945 -3.198,-7.14 -7.139,-7.14 z"
           id="path35825"
           style="fill:#d7b759;fill-opacity:1" />
      </g>
    </g>
  </g>
</svg>
