<?xml version="1.0" encoding="UTF-8" standalone="no"?>
<svg
   viewBox="0 0 100 100"
   version="1.1"
   id="svg4"
   width="100"
   height="100"
   xmlns="http://www.w3.org/2000/svg"
   xmlns:svg="http://www.w3.org/2000/svg">
  <defs
     id="defs8" />
  <!--! Font Awesome Pro 6.4.0 by @fontawesome - https://fontawesome.com License - https://fontawesome.com/license (Commercial License) Copyright 2023 Fonticons, Inc. -->
  <path
     d="M 89.285714,0 H 10.714286 A 10.714286,10.714286 0 0 0 0,10.714286 V 89.28571 A 10.714286,10.714286 0 0 0 10.714286,100 h 30.63616 V 66.002232 h -14.0625 V 50 h 14.0625 V 37.803571 c 0,-13.872767 8.258929,-21.535714 20.908483,-21.535714 6.058035,0 12.392857,1.080357 12.392857,1.080357 v 13.616072 h -6.979911 c -6.877232,0 -9.022321,4.267857 -9.022321,8.645089 V 50 H 74.002232 L 71.546875,66.002232 H 58.649554 V 100 h 30.63616 A 10.714286,10.714286 0 0 0 100,89.28571 V 10.714286 A 10.714286,10.714286 0 0 0 89.285714,0 Z"
     id="path2"
     style="stroke-width:0.223214;fill:#ffffff;fill-opacity:1" />
</svg>
