<?xml version="1.0" encoding="UTF-8" standalone="no"?>
<!-- Created with Inkscape (http://www.inkscape.org/) -->

<svg
   width="300mm"
   height="300mm"
   viewBox="0 0 300 300"
   version="1.1"
   id="svg173818"
   inkscape:version="1.1.1 (3bf5ae0d25, 2021-09-20)"
   sodipodi:docname="swift-icon.svg"
   inkscape:export-filename="C:\Users\PC\Pictures\Stock Images\Logos\swift-icon.png"
   inkscape:export-xdpi="16.933332"
   inkscape:export-ydpi="16.933332"
   xmlns:inkscape="http://www.inkscape.org/namespaces/inkscape"
   xmlns:sodipodi="http://sodipodi.sourceforge.net/DTD/sodipodi-0.dtd"
   xmlns="http://www.w3.org/2000/svg"
   xmlns:svg="http://www.w3.org/2000/svg">
  <sodipodi:namedview
     id="namedview173820"
     pagecolor="#ffffff"
     bordercolor="#666666"
     borderopacity="1.0"
     inkscape:pageshadow="2"
     inkscape:pageopacity="1"
     inkscape:pagecheckerboard="0"
     inkscape:document-units="mm"
     showgrid="false"
     inkscape:zoom="0.56576736"
     inkscape:cx="-300.47686"
     inkscape:cy="755.61093"
     inkscape:window-width="3440"
     inkscape:window-height="1361"
     inkscape:window-x="-9"
     inkscape:window-y="-9"
     inkscape:window-maximized="1"
     inkscape:current-layer="layer1"
     units="px"
     scale-x="2.5" />
  <defs
     id="defs173815" />
  <g
     inkscape:label="Layer 1"
     inkscape:groupmode="layer"
     id="layer1">
    <path
       style="fill:#8dd5ee;fill-opacity:1;stroke:none;stroke-width:0.710693"
       d="m 84.54704,254.73481 c -10.886447,-0.30714 -24.011457,-1.21202 -29.486631,-2.03288 -5.828902,-0.8739 -11.447475,-2.46899 -15.903105,-4.51477 -3.336056,-1.53172 -4.547145,-2.33233 -3.857932,-2.55033 0.1806,-0.057 1.6609,-0.16901 3.289582,-0.24862 1.628664,-0.0797 4.933388,-0.30232 7.343808,-0.49489 2.410439,-0.19257 7.368315,-0.45028 11.017516,-0.57265 7.332047,-0.24591 9.005689,-0.44904 17.992757,-2.18377 3.392946,-0.65493 9.153909,-1.76249 12.802123,-2.46125 14.495642,-2.77647 27.441792,-5.60385 52.591202,-11.48565 10.94733,-2.56029 23.46806,-6.07929 26.0119,-7.31074 0.55503,-0.26869 1.46035,-0.9221 2.01185,-1.45203 2.18424,-2.09878 6.37436,-9.58103 7.96399,-14.22114 0.82741,-2.4152 0.74533,-3.14669 -0.3938,-3.51019 -2.03127,-0.6482 -6.57993,-1.51423 -12.61489,-2.40183 -8.72798,-1.28367 -12.8905,-1.43767 -19.89936,-0.73621 -2.7362,0.27383 -7.90648,0.71645 -11.48953,0.98358 -10.611,0.79109 -19.2015,1.82459 -30.44133,3.66229 -7.432638,1.21524 -7.463024,1.21803 -7.458361,0.68599 0.0074,-0.86421 1.064173,-2.33213 2.083243,-2.8943 0.81925,-0.45191 2.01129,-0.68058 6.399658,-1.22759 5.31996,-0.66309 11.589,-1.55754 19.23021,-2.74362 2.14983,-0.3337 6.78711,-1.19406 10.30502,-1.9119 9.48821,-1.9361 16.22289,-3.97846 20.11516,-6.10014 2.42298,-1.32076 3.23104,-1.97476 4.22497,-3.41936 1.70392,-2.47657 0.63588,-5.03391 -3.49317,-8.36424 -5.34052,-4.30748 -17.92188,-10.10812 -37.76992,-17.41385 -1.16356,-0.42829 -1.35587,-0.60416 -1.99483,-1.82418 -0.69102,-1.31945 -1.1678,-3.94398 -0.71478,-3.93482 0.11383,0.002 1.37962,0.63906 2.81287,1.41501 8.86882,4.80159 10.06517,5.24326 35.5346,13.11803 11.76252,3.63681 13.75137,4.23015 18.35953,5.47735 8.43733,2.28356 23.46991,5.11162 24.69503,4.64584 0.5504,-0.20926 2.07399,-1.8616 3.73472,-4.05036 1.95975,-2.58281 5.68881,-6.74791 12.08813,-13.50158 2.28478,-2.41129 4.47907,-4.86388 4.87622,-5.4502 2.21652,-3.27226 6.20916,-12.39035 7.36505,-16.81971 0.70898,-2.71678 0.96102,-6.90511 0.56745,-9.42917 -0.14835,-0.95151 -0.90217,-4.14962 -1.67511,-7.10693 -1.58777,-6.07479 -3.21294,-14.27531 -5.22047,-26.342311 -0.53108,-3.192193 -1.38327,-8.095977 -1.89381,-10.897286 -0.51048,-2.801318 -1.30542,-7.225371 -1.76653,-9.831243 -0.46107,-2.605871 -1.21349,-6.763419 -1.67204,-9.238996 -1.60798,-8.681236 -1.87858,-11.243398 -1.8764,-17.7673 0.002,-5.111716 0.0757,-6.337799 0.54161,-8.956739 0.86981,-4.890493 3.15796,-12.050852 3.89866,-12.200019 0.23681,-0.0477 0.66794,0.484596 1.24718,1.539833 0.48688,0.887002 1.4425,2.62546 2.1236,3.863248 4.64859,8.448309 10.89002,20.523689 14.02003,27.124748 2.57197,5.424217 3.9208,8.363002 4.83848,10.541936 0.52131,1.237791 1.30599,3.103346 1.74375,4.145701 1.14993,2.738136 4.02907,10.956284 6.14164,17.530408 1.00485,3.12704 2.23882,6.964784 2.74213,8.5283 0.50331,1.56352 1.29948,4.1753 1.7693,5.80399 0.46978,1.62866 1.16502,3.97393 1.54499,5.21173 1.48033,4.8225 3.80578,14.89283 4.84458,20.97965 0.59906,3.51009 1.40818,8.19426 1.79805,10.40926 2.03255,11.54766 2.73465,20.91953 2.11192,28.19077 -0.52308,6.10776 -1.38286,9.37651 -3.32685,12.64824 l -1.18116,1.98787 1.13446,-0.15903 c 5.46847,-0.7666 7.59567,-0.89895 10.31184,-0.64154 1.52963,0.14495 3.90483,0.48042 5.27822,0.74545 5.14461,0.99281 6.79165,1.81297 8.26454,4.11546 0.91045,1.42328 1.45351,1.78572 3.57859,2.38849 0.78004,0.22125 1.79136,0.6153 2.2474,0.87567 1.19414,0.68177 3.07967,2.14588 3.07966,2.3913 1e-5,0.32926 -0.87258,0.99134 -3.55345,2.69615 -3.22424,2.05036 -3.52104,2.33473 -5.51984,5.28841 -2.43974,3.60538 -7.8587,8.96352 -11.65524,11.52443 -5.17525,3.49096 -11.49977,6.2779 -17.2935,7.62054 -3.06987,0.71142 -7.02891,1.20762 -11.33969,1.42127 -3.28473,0.16278 -3.80036,0.24279 -4.0865,0.63414 -0.18007,0.24632 -0.32756,0.66733 -0.32766,0.93559 0,0.96164 -1.35023,3.32895 -2.51764,4.41534 -2.20709,2.05388 -9.4282,6.67025 -14.03692,8.97363 -7.12487,3.56095 -11.74409,4.60451 -36.27334,8.19474 -3.97397,0.58165 -9.30415,1.42621 -11.84486,1.8768 -5.83133,1.03413 -20.6964,3.29958 -24.75578,3.77279 -14.17577,1.65252 -40.721,2.56478 -59.342801,2.03938 z"
       id="path175424" />
    <g
       id="g212407"
       transform="matrix(0.83993206,0,0,0.83993206,0.10646435,33.220175)"
       style="fill:#3a3a3a;fill-opacity:1">
      <g
         aria-label="SWIFT"
         id="text177743"
         style="font-weight:bold;font-size:61.6681px;line-height:1.25;font-family:Georgia;-inkscape-font-specification:'Georgia, Bold';fill:#3a3a3a;fill-opacity:1;stroke-width:0.321188">
        <path
           d="m 58.943199,100.66205 q -3.914479,0 -7.317064,-0.963559 -3.372474,-0.963565 -5.721162,-2.288465 l -2.077685,2.107796 H 41.267821 L 40.876374,84.070686 h 2.589578 q 0.87323,2.198131 2.228242,4.637152 1.355012,2.439022 3.131583,4.36615 1.836794,2.017462 4.095147,3.28214 2.288465,1.264678 5.329714,1.264678 4.095147,0 6.263166,-1.987351 2.19813,-2.017462 2.19813,-5.058711 0,-2.499245 -1.866905,-4.185482 -1.836794,-1.716348 -5.721161,-2.950915 -2.529356,-0.813007 -4.667264,-1.505568 -2.107796,-0.692562 -3.974701,-1.415235 -4.305927,-1.716349 -6.413724,-4.908154 -2.077685,-3.191806 -2.077685,-7.136397 0,-2.499244 1.08401,-4.787708 1.08401,-2.318576 3.161694,-4.15537 1.987351,-1.716349 5.088823,-2.800358 3.101472,-1.08401 6.744948,-1.08401 3.553143,0 6.654614,0.993676 3.101472,0.963564 4.878043,1.957239 l 1.836794,-1.806683 h 2.61969 l 0.240891,14.573907 h -2.589578 q -0.903342,-2.348688 -2.137908,-4.787709 -1.204455,-2.469133 -2.559467,-4.095147 -1.475457,-1.74646 -3.402585,-2.770247 -1.927129,-1.053898 -4.516707,-1.053898 -3.252029,0 -5.329713,1.836794 -2.047574,1.836794 -2.047574,4.546818 0,2.559466 1.776571,4.185481 1.806683,1.626014 5.600716,2.860581 2.228242,0.752784 4.546818,1.505568 2.318576,0.752785 4.125258,1.445346 4.36615,1.686237 6.624503,4.667264 2.288465,2.950915 2.288465,7.347176 0,2.770246 -1.294789,5.359824 -1.29479,2.589579 -3.49292,4.305927 -2.40891,1.897017 -5.570605,2.920804 -3.161694,1.023782 -7.377287,1.023782 z"
           id="path212342"
           style="fill:#3a3a3a;fill-opacity:1" />
        <path
           d="m 149.57844,59.19869 q -0.93345,0.09033 -1.8669,0.421559 -0.93345,0.301114 -1.8368,0.782896 -1.38512,0.782895 -1.98735,1.716348 -0.57211,0.933453 -1.0539,2.258353 -1.65612,4.576929 -5.11893,14.66424 -3.4327,10.087311 -7.16651,20.957518 h -6.05238 L 113.2039,68.232102 103.02626,99.999604 H 96.973869 Q 91.945269,85.365475 89.265357,77.476295 86.585444,69.557003 84.74865,64.197178 84.176534,62.571164 83.453861,61.848491 82.731188,61.095706 81.586956,60.342922 80.773949,59.800917 79.840496,59.560026 78.937155,59.289024 77.7327,59.138467 v -2.348688 h 22.79431 v 2.288465 q -2.017461,0.240891 -3.011136,0.481782 -0.993676,0.21078 -1.565792,0.451671 -0.542005,0.240891 -0.66245,0.511893 -0.120446,0.271002 -0.120446,0.481782 0,0.421559 0.09033,0.813007 0.120445,0.391448 0.240891,0.903342 0.722673,2.348687 2.920803,8.912967 2.19813,6.56428 5.42004,16.290254 l 9.72599,-31.135163 h 6.38361 l 11.29176,32.098727 q 2.49924,-7.738623 3.9747,-12.646778 1.50557,-4.908154 2.52935,-8.401073 0.60223,-2.137908 0.96357,-3.583254 0.36133,-1.445346 0.36133,-2.499244 0,-0.632339 -0.60221,-1.08401 -0.57213,-0.451671 -1.5658,-0.782896 -0.84311,-0.271002 -2.19813,-0.421559 -1.3249,-0.180668 -2.31857,-0.271002 v -2.408911 h 17.19359 z"
           id="path212344"
           style="fill:#3a3a3a;fill-opacity:1" />
        <path
           d="m 174.02888,99.517822 h -23.69766 v -2.348687 q 0.81301,-0.06022 2.3788,-0.180668 1.59591,-0.120446 2.19813,-0.361337 1.11412,-0.45167 1.50557,-1.174344 0.42156,-0.752784 0.42156,-1.897016 V 63.263725 q 0,-1.023786 -0.39145,-1.806682 -0.39144,-0.782896 -1.53568,-1.264678 -0.72267,-0.301114 -2.1379,-0.602228 -1.41524,-0.331225 -2.43903,-0.45167 v -2.348688 h 23.69766 v 2.348688 q -0.90334,0.09033 -2.25836,0.271002 -1.35501,0.150557 -2.28846,0.451671 -1.17434,0.391448 -1.56579,1.234566 -0.39145,0.813007 -0.39145,1.866906 v 30.261933 q 0,1.084009 0.39145,1.866905 0.42156,0.752784 1.56579,1.234566 0.63234,0.271003 2.07768,0.542005 1.47546,0.240891 2.46914,0.301114 z"
           id="path212346"
           style="fill:#3a3a3a;fill-opacity:1" />
        <path
           d="m 216.39559,68.201991 h -2.31858 q -0.87323,-2.499244 -3.10147,-5.299602 -2.19813,-2.83047 -4.18548,-3.101472 -0.90334,-0.120445 -2.40891,-0.21078 -1.50557,-0.09033 -2.77025,-0.09033 h -6.65461 V 76.27184 h 4.2457 q 1.80669,0 3.13159,-0.391448 1.3249,-0.421559 2.34868,-1.475457 0.75279,-0.752785 1.44535,-2.499245 0.72267,-1.776571 0.87323,-3.041249 h 2.28846 v 17.976492 h -2.28846 q -0.12045,-1.355012 -0.93345,-3.28214 -0.81301,-1.95724 -1.38513,-2.589578 -0.87323,-0.963565 -2.22824,-1.415235 -1.35501,-0.481782 -3.25203,-0.481782 h -4.2457 v 14.152347 q 0,1.084009 0.39145,1.866905 0.42156,0.752784 1.56579,1.234566 0.66245,0.271003 1.80668,0.511894 1.17434,0.210779 2.31858,0.331225 v 2.348687 h -23.03521 v -2.348687 q 0.87323,-0.09033 2.31858,-0.240891 1.44535,-0.180668 2.01746,-0.421559 1.08401,-0.42156 1.50557,-1.174344 0.42156,-0.752784 0.42156,-1.927128 V 63.263725 q 0,-1.023786 -0.39145,-1.776571 -0.36133,-0.782896 -1.53568,-1.294789 -0.84312,-0.361337 -2.22824,-0.66245 -1.38512,-0.301114 -2.1078,-0.391448 v -2.348688 h 38.39201 z"
           id="path212348"
           style="fill:#3a3a3a;fill-opacity:1" />
        <path
           d="m 259.12363,69.014998 h -2.31858 q -0.93345,-2.740135 -3.01114,-5.871718 -2.04757,-3.131583 -3.79403,-3.372474 -0.96356,-0.120446 -2.3788,-0.21078 -1.41523,-0.09033 -2.43902,-0.09033 h -1.41523 v 33.513962 q 0,1.084009 0.39144,1.927128 0.39145,0.813007 1.53568,1.294789 0.69256,0.271002 2.13791,0.572116 1.47546,0.271002 2.49925,0.391448 v 2.348687 h -23.8181 v -2.348687 q 0.87323,-0.09033 2.43902,-0.240891 1.5959,-0.180668 2.16802,-0.421559 1.17434,-0.481782 1.56579,-1.29479 0.39145,-0.813007 0.39145,-1.927128 V 59.469692 h -1.41524 q -1.02379,0 -2.43902,0.09033 -1.41523,0.09033 -2.3788,0.21078 -1.74646,0.240891 -3.82414,3.372474 -2.04758,3.131583 -2.98103,5.871718 h -2.31858 V 56.789779 h 41.40315 z"
           id="path212350"
           style="fill:#3a3a3a;fill-opacity:1" />
      </g>
      <g
         aria-label="CARS"
         id="text203892"
         style="font-weight:bold;font-size:59.9722px;line-height:1.25;font-family:Georgia;-inkscape-font-specification:'Georgia, Bold';fill:#3a3a3a;fill-opacity:1;stroke-width:0.226541">
        <path
           d="m 86.323467,159.86756 q -4.568195,0 -8.550724,-1.46417 -3.982529,-1.49345 -6.940142,-4.30464 -2.899047,-2.75263 -4.568195,-6.79373 -1.669148,-4.07038 -1.669148,-8.93141 0,-4.83174 1.669148,-8.9314 1.698432,-4.12895 4.743895,-7.14513 2.986896,-2.95761 7.174408,-4.56819 4.187512,-1.63987 8.96069,-1.63987 3.45543,0 6.29591,0.84922 2.84048,0.81993 4.802461,1.87413 l 1.81556,-1.61058 h 2.54765 l 0.26355,15.16875 h -2.57693 q -2.196247,-6.94014 -5.270993,-10.19059 -3.074747,-3.25045 -7.496525,-3.25045 -5.50526,0 -8.375024,4.86103 -2.869763,4.83175 -2.869763,13.58745 0,4.94888 0.966349,8.46288 0.995632,3.48471 2.57693,5.62239 1.698432,2.22553 4.011812,3.27973 2.313381,1.02491 5.124578,1.02491 4.099662,0 7.291541,-2.22553 3.221163,-2.22553 5.856665,-6.73516 l 2.51836,1.52274 q -1.25918,2.57693 -2.86976,4.62676 -1.61059,2.02055 -3.718983,3.48471 -2.313381,1.61058 -5.124578,2.51836 -2.781913,0.90779 -6.588742,0.90779 z"
           id="path212353"
           style="fill:#3a3a3a;fill-opacity:1" />
        <path
           d="m 152.53301,158.75479 h -22.63599 v -2.2841 q 1.5813,-0.11713 3.71898,-0.55638 2.13768,-0.46853 2.13768,-1.14205 0,-0.23426 -0.0586,-0.5271 -0.0293,-0.29283 -0.23426,-0.79065 l -3.54328,-8.60929 h -14.34882 q -0.49782,1.20062 -1.11277,2.8112 -0.58566,1.61058 -1.02491,2.86976 -0.55638,1.63987 -0.67352,2.37195 -0.0878,0.73208 -0.0878,1.02492 0,0.93706 1.4056,1.61058 1.43488,0.64423 4.7439,0.93706 v 2.2841 h -17.04289 v -2.2841 q 0.96635,-0.0586 2.16697,-0.29283 1.2299,-0.26355 1.9327,-0.7028 1.20061,-0.7028 2.02054,-1.72771 0.84922,-1.02492 1.4056,-2.43052 3.39687,-8.2286 6.79373,-16.48649 3.42614,-8.2579 7.55509,-18.21422 h 5.85666 q 5.73953,14.11455 8.98997,22.31388 3.25045,8.19932 5.53455,13.58745 0.38068,0.8785 0.96635,1.61058 0.58566,0.7028 1.66914,1.34703 0.81994,0.46853 1.90342,0.7028 1.08348,0.23427 1.96198,0.29283 z m -21.81606,-16.80861 -6.03236,-15.05162 -5.94451,15.05162 z"
           id="path212355"
           style="fill:#3a3a3a;fill-opacity:1" />
        <path
           d="m 200.61619,158.75479 h -15.93012 q -4.12894,-6.32519 -6.88157,-10.07345 -2.72335,-3.74827 -6.79373,-8.66786 h -1.61058 v 12.6211 q 0,1.0542 0.38068,1.78628 0.40997,0.73209 1.52273,1.2299 0.55639,0.23427 1.72772,0.49782 1.20061,0.23426 2.04983,0.32211 v 2.2841 h -22.16746 v -2.2841 q 0.84922,-0.0879 2.22553,-0.23426 1.4056,-0.1757 1.99127,-0.40997 1.11276,-0.46853 1.49344,-1.17133 0.38069,-0.73208 0.38069,-1.84485 V 123.4977 q 0,-1.0542 -0.32212,-1.757 -0.32212,-0.7028 -1.55201,-1.2299 -0.93707,-0.38068 -2.22554,-0.64423 -1.25918,-0.26355 -1.99126,-0.38068 v -2.2841 h 23.30951 q 7.81864,0 11.85973,2.4598 4.07038,2.43051 4.07038,7.37939 0,4.36321 -2.51836,7.02799 -2.48908,2.6355 -7.61366,4.12894 1.99127,2.57694 4.62676,5.9738 2.66478,3.39686 5.53455,6.94014 0.90778,1.14205 2.45979,2.8112 1.5813,1.63986 2.78192,2.02054 0.67351,0.20499 1.69843,0.3514 1.0542,0.14642 1.49345,0.1757 z m -19.94193,-30.89388 q 0,-4.15823 -2.34267,-6.06164 -2.31338,-1.9327 -6.61802,-1.9327 h -2.31338 v 17.39428 h 2.22553 q 4.30464,0 6.67659,-2.25482 2.37195,-2.25481 2.37195,-7.14512 z"
           id="path212357"
           style="fill:#3a3a3a;fill-opacity:1" />
        <path
           d="m 218.15688,159.86756 q -3.80683,0 -7.11584,-0.93707 -3.27973,-0.93706 -5.56383,-2.22553 l -2.02055,2.04983 h -2.48908 l -0.38068,-15.02233 h 2.51836 q 0.84922,2.13768 2.16697,4.50963 1.31775,2.37194 3.04546,4.24608 1.78628,1.96198 3.98253,3.19187 2.22553,1.2299 5.18314,1.2299 3.98253,0 6.09093,-1.93269 2.13768,-1.96199 2.13768,-4.9196 0,-2.43051 -1.81556,-4.07038 -1.78628,-1.66915 -5.56383,-2.86976 -2.4598,-0.79065 -4.53891,-1.46417 -2.04983,-0.67351 -3.8654,-1.37631 -4.18751,-1.66915 -6.23734,-4.77318 -2.02055,-3.10403 -2.02055,-6.94014 0,-2.43051 1.0542,-4.65605 1.0542,-2.25481 3.07475,-4.04109 1.93269,-1.66915 4.94887,-2.72335 3.01618,-1.0542 6.55946,-1.0542 3.45543,0 6.47161,0.96635 3.01618,0.93707 4.7439,1.90342 l 1.78628,-1.757 h 2.54765 l 0.23426,14.17312 H 230.573 q -0.8785,-2.2841 -2.07912,-4.65605 -1.17133,-2.40123 -2.48908,-3.98253 -1.43488,-1.69843 -3.30901,-2.69406 -1.87413,-1.02492 -4.39249,-1.02492 -3.1626,0 -5.18315,1.78628 -1.99126,1.78629 -1.99126,4.42178 0,2.48908 1.72771,4.07038 1.757,1.5813 5.4467,2.78191 2.16696,0.73209 4.42177,1.46417 2.25482,0.73208 4.01182,1.4056 4.24608,1.63986 6.44232,4.53891 2.22553,2.86976 2.22553,7.14513 0,2.69406 -1.25918,5.21242 -1.25918,2.51837 -3.39686,4.18751 -2.34267,1.84485 -5.41741,2.84048 -3.07475,0.99564 -7.17441,0.99564 z"
           id="path212359"
           style="fill:#3a3a3a;fill-opacity:1" />
      </g>
    </g>
  </g>
</svg>
