<?xml version="1.0" encoding="UTF-8" standalone="no"?>
<svg
   viewBox="0 0 123.12474 100"
   version="1.1"
   id="svg4"
   width="123.12474"
   height="100"
   xmlns="http://www.w3.org/2000/svg"
   xmlns:svg="http://www.w3.org/2000/svg">
  <defs
     id="defs8">
    <linearGradient
       id="linearGradient847">
      <stop
         style="stop-color:#000000;stop-opacity:1;"
         offset="0"
         id="stop845" />
    </linearGradient>
  </defs>
  <!--! Font Awesome Pro 6.4.0 by @fontawesome - https://fontawesome.com License - https://fontawesome.com/license (Commercial License) Copyright 2023 Fonticons, Inc. -->
  <path
     d="m 110.46882,24.921784 c 0.0781,1.093698 0.0781,2.187636 0.0781,3.281334 C 110.54692,61.56234 85.156444,100 38.750039,100 24.453091,100 11.171926,95.85919 0,88.672 c 2.0313248,0.23423 3.9842534,0.31239 6.0937338,0.31239 11.7966892,0 22.6562332,-3.98426 31.3281402,-10.78115 -11.093769,-0.23447 -20.390681,-7.50006 -23.59386,-17.50013 1.562632,0.23423 3.125023,0.39054 4.76581,0.39054 2.265551,0 4.531343,-0.31262 6.640583,-0.85923 C 13.671994,57.89047 4.9998456,47.734329 4.9998456,35.468705 V 35.156323 C 8.3590945,37.031337 12.265673,38.20319 16.405998,38.359261 9.6091035,33.827918 5.1561568,26.093638 5.1561568,17.343575 c 0,-4.687414 1.2497686,-8.98429 3.4374046,-12.734317 C 21.015496,19.921748 39.687476,29.92158 60.624766,31.015518 60.234228,29.140505 59.999761,27.187576 59.999761,25.234407 59.999761,11.327996 71.249843,0 85.234168,0 c 7.265587,0 13.828015,3.046867 18.437512,7.968747 5.70296,-1.093697 11.17169,-3.203178 16.01565,-6.093733 -1.87525,5.859507 -5.85951,10.781387 -11.09377,13.906169 5.07819,-0.546608 10.00007,-1.953169 14.53118,-3.906097 -3.43693,4.999795 -7.73404,9.452742 -12.65592,13.046698 z"
     id="path2"
     style="stroke-width:0.240479;fill-opacity:1;fill:#ffffff" />
</svg>
