<?xml version="1.0" encoding="UTF-8" standalone="no"?>
<svg
   height="40"
   width="40"
   version="1.1"
   id="svg4"
   sodipodi:docname="touch-app-red.svg"
   inkscape:version="1.2.1 (9c6d41e410, 2022-07-14)"
   xmlns:inkscape="http://www.inkscape.org/namespaces/inkscape"
   xmlns:sodipodi="http://sodipodi.sourceforge.net/DTD/sodipodi-0.dtd"
   xmlns="http://www.w3.org/2000/svg"
   xmlns:svg="http://www.w3.org/2000/svg">
  <defs
     id="defs8" />
  <sodipodi:namedview
     id="namedview6"
     pagecolor="#505050"
     bordercolor="#eeeeee"
     borderopacity="1"
     inkscape:showpageshadow="0"
     inkscape:pageopacity="0"
     inkscape:pagecheckerboard="0"
     inkscape:deskcolor="#505050"
     showgrid="false"
     inkscape:zoom="23.145833"
     inkscape:cx="-8.7272729"
     inkscape:cy="18.556256"
     inkscape:window-width="3440"
     inkscape:window-height="1361"
     inkscape:window-x="-9"
     inkscape:window-y="-9"
     inkscape:window-maximized="1"
     inkscape:current-layer="svg4" />
  <path
     d="m 19.087121,0 q 4.1,0 7.025,2.9 2.925,2.9 2.925,7.05 0,2.7 -1.35,4.975 -1.35,2.275 -3.6,3.525 h -1.05 V 16.5 q 1.75,-1.05 2.75,-2.775 1,-1.725 1,-3.775 0,-3.2 -2.275,-5.45 -2.275,-2.25 -5.475,-2.25 -3.2,0 -5.475,2.25 -2.275,2.25 -2.275,5.45 0,2.05 1.025,3.8 1.025,1.75 2.725,2.75 v 2.65 q -2.75,-1.2 -4.375,-3.675 Q 9.0371212,13 9.0371212,9.95 q 0,-4.15 2.9499998,-7.05 2.95,-2.9 7.1,-2.9 z m -1.95,40 q -0.65,0 -1.2,-0.25 -0.55,-0.25 -1,-0.7 l -9.5999998,-9.55 2.15,-2.2 q 0.5,-0.5 1.125,-0.775 0.625,-0.275 1.275,-0.075 l 5.1499998,1.1 V 10 q 0,-1.7 1.15,-2.85 1.15,-1.15 2.85,-1.15 1.7,0 2.85,1.15 1.15,1.15 1.15,2.85 v 9.35 h 1.6 q 0.25,0 0.425,0.1 0.175,0.1 0.425,0.2 l 6.9,3.35 q 1.3,0.6 1.875,1.975 0.575,1.375 0.325,2.775 l -1.65,9.8 q -0.2,1.05 -1.05,1.75 -0.85,0.7 -1.95,0.7 z m -0.3,-2.25 h 13.7 l 1.9,-10.95 q 0.1,-0.4 -0.025,-0.825 -0.125,-0.425 -0.575,-0.675 l -8.1,-4.05 h -2.95 V 10 q 0,-0.8 -0.475,-1.275 -0.475,-0.475 -1.275,-0.475 -0.8,0 -1.275,0.475 -0.475,0.475 -0.475,1.275 v 20.3 l -7.8999998,-1.65 -0.85,0.8 z m 13.7,0 h -13.7 z"
     id="path2"
     style="fill:#df0000;fill-opacity:1" />
</svg>
