<?xml version="1.0" encoding="UTF-8" standalone="no"?>
<svg
   viewBox="0 0 125 125"
   version="1.1"
   id="svg4"
   sodipodi:docname="xmark-red.svg"
   width="100"
   height="100"
   inkscape:version="1.2.1 (9c6d41e410, 2022-07-14)"
   xmlns:inkscape="http://www.inkscape.org/namespaces/inkscape"
   xmlns:sodipodi="http://sodipodi.sourceforge.net/DTD/sodipodi-0.dtd"
   xmlns="http://www.w3.org/2000/svg"
   xmlns:svg="http://www.w3.org/2000/svg">
  <defs
     id="defs8" />
  <sodipodi:namedview
     id="namedview6"
     pagecolor="#505050"
     bordercolor="#eeeeee"
     borderopacity="1"
     inkscape:showpageshadow="0"
     inkscape:pageopacity="0"
     inkscape:pagecheckerboard="0"
     inkscape:deskcolor="#505050"
     showgrid="true"
     inkscape:zoom="6.1374659"
     inkscape:cx="-99.226621"
     inkscape:cy="44.236498"
     inkscape:window-width="3440"
     inkscape:window-height="1361"
     inkscape:window-x="-9"
     inkscape:window-y="-9"
     inkscape:window-maximized="1"
     inkscape:current-layer="svg4">
    <inkscape:grid
       type="xygrid"
       id="grid3851" />
  </sodipodi:namedview>
  <!--! Font Awesome Pro 6.4.0 by @fontawesome - https://fontawesome.com License - https://fontawesome.com/license (Commercial License) Copyright 2023 Fonticons, Inc. -->
  <path
     d="m 108.47474,28.477966 c 3.90442,-3.90442 4.97013,-9.121888 1.06571,-13.026303 -3.90442,-3.90442 -9.2659,-2.953925 -13.170322,0.950495 L 62.355985,50.706761 28.569831,16.462196 c -3.90442,-3.90442 -9.237096,-4.883718 -13.141516,-0.979298 -3.90442,3.90442 -2.925122,9.237099 0.979298,13.141519 L 50.42419,62.494545 16.467651,96.453519 c -3.90442,3.904421 -4.912521,9.237101 -1.008101,13.141521 3.90442,3.90441 9.121886,2.8387 13.026306,-1.06571 L 62.5,74.829584 96.458974,108.5557 c 3.904416,3.90442 9.208296,4.91252 13.112716,1.0081 3.90441,-3.90442 2.92511,-9.06428 -0.9793,-12.968704 L 74.489401,62.580954 Z"
     id="path2"
     style="fill:#ae0b0b;fill-opacity:1;stroke-width:0.312354"
     sodipodi:nodetypes="cscccscccscccsccc" />
</svg>
